<?xml version="1.0" encoding="UTF-8"?>
<svg width="18px" height="18px" viewBox="0 0 18 18" version="1.1" xmlns="http://www.w3.org/2000/svg" xmlns:xlink="http://www.w3.org/1999/xlink">
    <!-- Generator: Sketch 44.1 (41455) - http://www.bohemiancoding.com/sketch -->
    <title>noun_1076054_cc</title>
    <desc>Created with Sketch.</desc>
    <defs></defs>
    <g id="UI_App" stroke="none" stroke-width="1" fill="none" fill-rule="evenodd">
        <g id="02-Live_info" transform="translate(-20.000000, -132.000000)" fill-rule="nonzero" fill="#3B5AFF">
            <g id="noun_1076054_cc" transform="translate(20.000000, 132.000000)">
                <g id="Group">
                    <path d="M9,17.9027027 C13.9135135,17.9027027 17.9027027,13.9135135 17.9027027,9 C17.9027027,4.08648649 13.9135135,0.0972972973 9,0.0972972973 C4.08648649,0.0972972973 0.0972972973,4.08648649 0.0972972973,9 C0.0972972973,13.9135135 4.08648649,17.9027027 9,17.9027027 Z M9,1.55675676 C13.1108108,1.55675676 16.4432432,4.88918919 16.4432432,9 C16.4432432,13.1108108 13.1108108,16.4432432 9,16.4432432 C4.88918919,16.4432432 1.55675676,13.1108108 1.55675676,9 C1.55675676,4.88918919 4.88918919,1.55675676 9,1.55675676 Z" id="Shape"></path>
                    <path d="M4.96216216,9.72972973 L8.36756757,9.72972973 L8.36756757,13.1351351 C8.36756757,13.5486486 8.68378378,13.8648649 9.0972973,13.8648649 C9.51081081,13.8648649 9.82702703,13.5486486 9.82702703,13.1351351 L9.82702703,9.72972973 L13.2324324,9.72972973 C13.6459459,9.72972973 13.9621622,9.41351351 13.9621622,9 C13.9621622,8.58648649 13.6459459,8.27027027 13.2324324,8.27027027 L9.82702703,8.27027027 L9.82702703,4.86486486 C9.82702703,4.45135135 9.51081081,4.13513514 9.0972973,4.13513514 C8.68378378,4.13513514 8.36756757,4.45135135 8.36756757,4.86486486 L8.36756757,8.27027027 L4.96216216,8.27027027 C4.54864865,8.27027027 4.23243243,8.58648649 4.23243243,9 C4.23243243,9.41351351 4.57297297,9.72972973 4.96216216,9.72972973 Z" id="Shape"></path>
                </g>
            </g>
        </g>
    </g>
</svg>