<?xml version="1.0" encoding="UTF-8"?>
<svg width="18px" height="18px" viewBox="0 0 18 18" version="1.1" xmlns="http://www.w3.org/2000/svg" xmlns:xlink="http://www.w3.org/1999/xlink">
    <!-- Generator: Sketch 44.1 (41455) - http://www.bohemiancoding.com/sketch -->
    <title>icone</title>
    <desc>Created with Sketch.</desc>
    <defs></defs>
    <g id="UI_App" stroke="none" stroke-width="1" fill="none" fill-rule="evenodd">
        <g id="00-MessagesError" transform="translate(-1372.000000, -61.000000)" fill-rule="nonzero" fill="#FFFFFF">
            <g id="errorMessage" transform="translate(1028.000000, 44.000000)">
                <g id="icone" transform="translate(344.000000, 17.000000)">
                    <path d="M10.0682464,9 L16.82109,2.2471564 C17.1263033,1.94194313 17.1263033,1.48412322 16.82109,1.17890995 C16.5158768,0.873696682 16.0580569,0.873696682 15.7528436,1.17890995 L9,7.93175355 L2.2471564,1.17890995 C1.94194313,0.873696682 1.48412322,0.873696682 1.17890995,1.17890995 C0.873696682,1.48412322 0.873696682,1.94194313 1.17890995,2.2471564 L7.93175355,9 L1.17890995,15.7528436 C0.873696682,16.0580569 0.873696682,16.5158768 1.17890995,16.82109 C1.33151659,16.9736967 1.52227488,17.05 1.71303318,17.05 C1.90379147,17.05 2.09454976,16.9736967 2.2471564,16.82109 L9,10.0682464 L15.7528436,16.82109 C15.9054502,16.9736967 16.0962085,17.05 16.2869668,17.05 C16.4777251,17.05 16.6684834,16.9736967 16.82109,16.82109 C17.1263033,16.5158768 17.1263033,16.0580569 16.82109,15.7528436 L10.0682464,9 Z" id="Shape"></path>
                </g>
            </g>
        </g>
    </g>
</svg>