<?xml version="1.0" encoding="UTF-8"?>
<svg width="72px" height="73px" viewBox="0 0 72 73" version="1.1" xmlns="http://www.w3.org/2000/svg" xmlns:xlink="http://www.w3.org/1999/xlink">
    <!-- Generator: Sketch 44.1 (41455) - http://www.bohemiancoding.com/sketch -->
    <title>Group</title>
    <desc>Created with Sketch.</desc>
    <defs>
        <linearGradient x1="1.37061478%" y1="86.6225013%" x2="112.753948%" y2="-114.592352%" id="linearGradient-1">
            <stop stop-color="#3B5AFF" offset="0%"></stop>
            <stop stop-color="#5D236D" offset="100%"></stop>
        </linearGradient>
    </defs>
    <g id="UI_App" stroke="none" stroke-width="1" fill="none" fill-rule="evenodd">
        <g id="02-Live_info" transform="translate(-461.000000, -592.000000)" fill-rule="nonzero" fill="#F3F3F3">
            <g id="statistiques" transform="translate(310.000000, 515.000000)">
                <g id="vue">
                    <g id="Group">
                        <g transform="translate(151.000000, 76.924126)" id="Shape">
                            <path d="M55.7050667,22.1505755 C62.4536889,22.1505755 67.9454222,28.1387542 67.9454222,35.4887929 C67.9454222,42.8481777 62.4536889,48.8310158 55.7050667,48.8310158 C48.9552,48.8310158 43.4684444,42.8481777 43.4684444,35.4887929 C43.4684444,28.1387542 48.9552,22.1505755 55.7050667,22.1505755 L55.7050667,22.1505755 Z M55.7050667,14.9767775 C45.2704,14.9767775 36.7808,24.1786789 36.7808,35.4887929 C36.7808,46.8029124 45.2704,56.0048138 55.7050667,56.0048138 C66.1422222,56.0048138 74.6318222,46.8015773 74.6318222,35.4887929 C74.6318222,24.1773437 66.1422222,14.9767775 55.7050667,14.9767775 L55.7050667,14.9767775 Z"></path>
                            <path d="M56.0398222,7.26891677 C59.2032,7.26891677 62.3889778,7.63875523 65.4938667,8.36374543 C74.7276444,10.5200238 84.2949333,15.8967006 93.9269333,24.3308867 C98.6421333,28.4551864 102.134044,32.0694561 104.915378,35.7050883 L105.129422,35.9560978 C105.186667,36.0188502 105.231467,36.118987 105.255111,36.2338105 L105.224,36.6490443 C105.200356,36.7131318 105.169244,36.7692084 105.129422,36.8132685 L104.9216,37.0589374 C103.882489,38.4221326 102.697778,39.7305864 101.591467,40.9469143 C94.7470222,48.407771 87.4881778,54.3238512 80.0190222,58.5269251 C74.4053333,61.6698845 69.2520889,63.6779604 64.2506667,64.6673117 C61.4618667,65.2133909 58.6743111,65.4884332 55.9054222,65.4884332 C52.7109333,65.4884332 49.5425778,65.1239354 46.424,64.3922694 C37.1877333,62.235991 27.6204444,56.8633196 17.9884444,48.4277984 C13.2832,44.3155151 9.79626667,40.7065861 6.99751111,37.0589374 C6.59431111,36.5328856 6.59431111,36.229805 7.00124444,35.6997477 C7.96071111,34.4393596 9.02844444,33.2337129 10.3351111,31.813106 C17.1584,24.3629305 24.4147556,18.4481855 31.9025778,14.2384358 C37.5237333,11.0874655 42.6757333,9.07938952 47.6696889,8.10205468 C50.4696889,7.55063488 53.2833778,7.26891677 56.0398222,7.26891677 L56.0398222,7.26891677 Z M56.0398222,0.0951187765 C52.8888889,0.0951187765 49.6695111,0.414221274 46.4638222,1.04441533 C40.8165333,2.14859008 35.0373333,4.38364272 28.8064,7.87774832 C20.7000889,12.4373091 12.8837333,18.7953262 5.56391111,26.7849051 C4.13653333,28.3363574 2.94808889,29.6808604 1.81937778,31.1628846 C-0.608533333,34.3191955 -0.611022222,38.4354842 1.83555556,41.6211685 C4.92426667,45.6480017 8.71484444,49.5800388 13.7648,53.9913972 C24.2144,63.1438977 34.7249778,69.0052364 44.9991111,71.4045134 C48.5644444,72.2389864 52.2343111,72.6635663 55.9029333,72.6635663 C59.0650667,72.6635663 62.2782222,72.3484693 65.4515556,71.7262862 C71.1224889,70.6060896 76.8967111,68.3683666 83.1114667,64.8876126 C91.2078222,60.3307221 99.0241778,53.972705 106.3552,45.9777855 C107.618311,44.5945629 108.834133,43.2407138 109.9728,41.76136 L110.037511,41.6852561 C110.6448,40.9829635 111.120178,40.169853 111.449956,39.2632815 L111.807111,38.280606 L111.886756,37.2298375 L111.917867,36.8146037 L112,35.745143 L111.785956,34.6957097 C111.5072,33.3351848 110.906133,32.0934889 110.044978,31.0934564 L109.971556,31.0053361 C106.921422,27.0465959 103.161956,23.1546135 98.1530667,18.7712934 C87.696,9.61345228 77.1854222,3.75077836 66.9162667,1.35283657 C63.3347556,0.518363512 59.6773333,0.0951187765 56.0398222,0.0951187765 L56.0398222,0.0951187765 Z"></path>
                        </g>
                    </g>
                </g>
            </g>
        </g>
    </g>
</svg>