<?xml version="1.0" encoding="UTF-8"?>
<svg width="30px" height="31px" viewBox="0 0 30 31" version="1.1" xmlns="http://www.w3.org/2000/svg" xmlns:xlink="http://www.w3.org/1999/xlink">
    <!-- Generator: Sketch 44.1 (41455) - http://www.bohemiancoding.com/sketch -->
    <title>logo_liveup</title>
    <desc>Created with Sketch.</desc>
    <defs>
        <linearGradient x1="49.3255467%" y1="97.5637431%" x2="50.7633028%" y2="2.20530117%" id="linearGradient-1">
            <stop stop-color="#3B5AFF" offset="0%"></stop>
            <stop stop-color="#3D57F8" offset="13%"></stop>
            <stop stop-color="#4150E5" offset="31%"></stop>
            <stop stop-color="#4844C5" offset="54%"></stop>
            <stop stop-color="#53349A" offset="78%"></stop>
            <stop stop-color="#5D236D" offset="100%"></stop>
        </linearGradient>
        <linearGradient x1="49.5992957%" y1="102.004762%" x2="50.572893%" y2="-0.836104287%" id="linearGradient-2">
            <stop stop-color="#3B5AFF" offset="0%"></stop>
            <stop stop-color="#3D57F8" offset="13%"></stop>
            <stop stop-color="#4150E4" offset="32%"></stop>
            <stop stop-color="#4944C4" offset="54%"></stop>
            <stop stop-color="#533398" offset="79%"></stop>
            <stop stop-color="#5D236D" offset="100%"></stop>
        </linearGradient>
        <linearGradient x1="-18.6775533%" y1="48.7369359%" x2="126.813205%" y2="51.7002315%" id="linearGradient-3">
            <stop stop-color="#3B5AFF" offset="0%"></stop>
            <stop stop-color="#3D57F8" offset="13%"></stop>
            <stop stop-color="#4150E4" offset="32%"></stop>
            <stop stop-color="#4943C2" offset="55%"></stop>
            <stop stop-color="#543295" offset="80%"></stop>
            <stop stop-color="#5D236D" offset="100%"></stop>
        </linearGradient>
    </defs>
    <g id="UI_App" stroke="none" stroke-width="1" fill="none" fill-rule="evenodd">
        <g id="01-Live" transform="translate(-30.000000, -16.000000)" fill-rule="nonzero">
            <g id="Group-3">
                <g id="logo_liveup" transform="translate(30.000000, 16.000000)">
                    <path d="M28.8031253,18.4510917 C28.5840902,16.4475983 26.9960852,15.7572052 25.4217699,15.2021834 C23.3450283,14.439919 21.193068,13.8954477 19.0013013,13.5777293 C17.4543654,13.2663756 15.8937398,12.9956332 14.3604936,12.6436681 C11.8278994,12.0751091 9.32268459,11.4659389 6.8037801,10.8703057 C5.64015573,8.20349345 4.84615322,5.44192139 4.80508413,2.51790393 C4.79139443,1.74628821 4.95567081,1.02882096 5.43481025,0.460262009 C5.65989334,0.206927579 6.00277553,0.0887701141 6.33833034,0.148908297 C9.65123735,0.717467248 12.662971,2.08471615 15.6062561,3.61441048 C18.718528,5.23166428 21.6465859,7.17404821 24.3402837,9.40829694 C25.8187711,10.6401747 27.3109483,11.9803493 28.5704005,13.4829694 C29.8298527,14.9855895 30.2816128,17.3816594 28.8031253,18.4510917 Z" id="Shape" fill="url(#linearGradient-1)"></path>
                    <path d="M1.86179897,28.6310044 C3.72359796,29.4567685 5.1199472,28.4414848 6.40677884,27.3855895 C8.11943668,25.9943463 9.67950286,24.4289816 11.0612763,22.7152839 C12.1153831,21.5510917 13.1421104,20.3598254 14.2235967,19.2227074 C15.9895677,17.3545852 17.7966078,15.5135371 19.5899584,13.658952 C22.5058641,14.010917 25.3122522,14.7283843 27.8996053,16.1633187 C28.7346769,16.6371179 29.2685751,16.7724891 29.4054721,17.7742358 C27.5573628,20.7524017 24.2992146,23.1078602 21.2464119,24.9759826 C17.6405866,27.1856967 13.755697,28.9153225 9.69230645,30.1200874 C8.58374209,30.4579889 7.45427512,30.7247736 6.31095095,30.9187773 C4.29856529,31.2572052 2.75162937,30.4179039 1.86179897,28.6310044 Z" id="Shape" fill="url(#linearGradient-2)"></path>
                    <path d="M6.24250246,0.148908297 C4.59973865,1.34017467 4.92829141,2.69388646 5.22946477,4.31834061 C5.61112536,6.47839332 6.2213897,8.59278092 7.05019467,10.6266376 C7.5567135,12.1021834 8.10430143,13.5777293 8.56975119,15.0668122 C9.35006398,17.5170306 10.0893077,20.5628821 10.8422411,23.0131004 C9.08995972,25.3550218 7.06388436,27.3855895 4.51760046,28.9017467 C3.69621856,29.389083 2.83376756,29.0641922 1.88917838,28.6851528 C0.520208539,25.3279476 0.191655778,21.7676856 0.0547587935,18.2074235 C-0.111445821,14.0421613 0.275158345,9.87332307 1.20469345,5.80742358 C1.4152077,4.80475713 1.6988699,3.81848081 2.05345476,2.85633187 C2.73793968,0.947598254 4.2301168,0.0270742358 6.24250246,0.148908297 Z" id="Shape" fill="url(#linearGradient-3)"></path>
                </g>
            </g>
        </g>
    </g>
</svg>