<?xml version="1.0" encoding="UTF-8"?>
<svg width="25px" height="25px" viewBox="0 0 25 25" version="1.1" xmlns="http://www.w3.org/2000/svg" xmlns:xlink="http://www.w3.org/1999/xlink">
    <!-- Generator: Sketch 44.1 (41455) - http://www.bohemiancoding.com/sketch -->
    <title>noun_425184_cc</title>
    <desc>Created with Sketch.</desc>
    <defs></defs>
    <g id="UI_App" stroke="none" stroke-width="1" fill="none" fill-rule="evenodd">
        <g id="02-Live_info" transform="translate(-1019.000000, -20.000000)" fill-rule="nonzero" fill="#FF0000">
            <g id="Group-3" transform="translate(-1.000000, -1.000000)">
                <g id="noun_425184_cc" transform="translate(1020.000000, 21.000000)">
                    <path d="M0.4775,4.76055556 L3.91111111,4.76055556 L3.91111111,8.19388889 C3.91111111,8.43805556 4.10888889,8.63611111 4.35305556,8.63611111 C4.59722222,8.63611111 4.79527778,8.43805556 4.79527778,8.19388889 L4.79527778,4.76055556 L8.22861111,4.76055556 C8.47277778,4.76055556 8.67055556,4.5625 8.67055556,4.31833333 C8.67055556,4.07416667 8.47277778,3.87611111 8.22861111,3.87611111 L4.79527778,3.87611111 L4.79527778,0.442222222 C4.79527778,0.198055556 4.59722222,0 4.35305556,0 C4.10888889,0 3.91111111,0.198055556 3.91111111,0.442222222 L3.91111111,3.87611111 L0.4775,3.87611111 C0.233333333,3.87611111 0.0352777778,4.07416667 0.0352777778,4.31833333 C0.0352777778,4.5625 0.233333333,4.76055556 0.4775,4.76055556 Z" id="Shape"></path>
                    <path d="M17.0080556,12.4952778 C18.2394444,12.4952778 19.3555556,11.9961111 20.1677778,11.1905556 L20.6691667,11.4469444 C22.5338889,12.3727778 23.4697222,12.8372222 23.895,14.9366667 L23.895,14.9366667 C24.0513889,15.7038889 24.0788889,16.4358333 24.0794444,16.4438889 C24.095,16.8930556 23.9336111,17.3161111 23.625,17.6347222 C23.3172222,17.9533333 22.9,18.1288889 22.4502778,18.1288889 L15.9786111,18.1288889 C15.3541667,17.5244444 14.5494444,17.1241667 13.5772222,16.6416667 L13.2588889,16.4786111 C13.7336111,15.7666667 14.0125,14.9119444 14.0125,13.9938889 C14.0125,11.5194444 11.9986111,9.50611111 9.52416667,9.50611111 C7.04944444,9.50611111 5.03611111,11.5194444 5.03611111,13.9938889 C5.03611111,14.9127778 5.31444444,15.7666667 5.78944444,16.4786111 L5.47,16.6419444 C3.66472222,17.5386111 2.43611111,18.1491667 1.87,20.3163889 L1.85777778,20.3136111 L1.77,20.7472222 C1.58527778,21.6577778 1.56194444,22.3725 1.56111111,22.4025 C1.54027778,23.0927778 1.79194444,23.7441667 2.26972222,24.2369444 C2.7475,24.7294444 3.39111111,25.0008333 4.08194444,25.0008333 L14.9669444,25.0008333 C15.6583333,25.0008333 16.3016667,24.7288889 16.7775,24.2363889 C17.2538889,23.7438889 17.5033333,23.0919444 17.48,22.4011111 C17.4786111,22.3652778 17.4502778,21.5877778 17.2783333,20.7475 L17.095,20.0327778 C16.9747222,19.6438889 16.8302778,19.3083333 16.6622222,19.0144444 L22.45,19.0144444 C23.1411111,19.0144444 23.7844444,18.7427778 24.2608333,18.2502778 C24.7375,17.7575 24.9863889,17.1055556 24.9630556,16.415 C24.9613889,16.3744444 24.9266667,15.4144444 24.6975,14.4722222 L24.6944444,14.4722222 C24.1447222,12.1925 22.9047222,11.5705556 21.0619444,10.6555556 L20.7425,10.4922222 C21.2177778,9.78027778 21.4963889,8.92611111 21.4963889,8.00777778 C21.4963889,5.53333333 19.4825,3.52 17.0080556,3.52 C14.5330556,3.52 12.5197222,5.53333333 12.5197222,8.00777778 C12.5197222,10.4816667 14.5327778,12.4952778 17.0080556,12.4952778 Z M9.52444444,10.3902778 C11.5116667,10.3902778 13.1283333,12.0066667 13.1283333,13.9936111 C13.1283333,15.9808333 11.5116667,17.5977778 9.52444444,17.5977778 C7.53722222,17.5977778 5.92055556,15.9813889 5.92055556,13.9936111 C5.92055556,12.0069444 7.53722222,10.3902778 9.52444444,10.3902778 Z M16.1413889,23.6211111 C15.8336111,23.9397222 15.4161111,24.115 14.9666667,24.115 L4.08194444,24.115 C3.63222222,24.115 3.21416667,23.9391667 2.90444444,23.6202778 C2.59444444,23.3011111 2.43138889,22.8775 2.44527778,22.4286111 C2.44527778,22.4222222 2.46805556,21.755 2.63694444,20.9222222 C3.06305556,18.8236111 3.99888889,18.3588889 5.86361111,17.4333333 L6.365,17.1766667 C7.17666667,17.9825 8.29305556,18.4813889 9.52444444,18.4813889 C10.7555556,18.4813889 11.8722222,17.9825 12.6838889,17.1769444 L13.185,17.4330556 C15.0447222,18.3561111 15.9802778,18.8216667 16.4083333,20.9069444 C16.5672222,21.6794444 16.5955556,22.4219444 16.5958333,22.4297222 C16.6113889,22.8791667 16.4502778,23.3025 16.1413889,23.6211111 Z M17.0080556,4.40361111 C18.995,4.40361111 20.6122222,6.02 20.6122222,8.00722222 C20.6122222,9.99444444 18.9955556,11.6111111 17.0080556,11.6111111 C15.0211111,11.6111111 13.4038889,9.99444444 13.4038889,8.00722222 C13.4038889,6.02 15.0205556,4.40361111 17.0080556,4.40361111 Z" id="Shape"></path>
                </g>
            </g>
        </g>
    </g>
</svg>