<?xml version="1.0" encoding="UTF-8"?>
<svg width="54px" height="38px" viewBox="0 0 54 38" version="1.1" xmlns="http://www.w3.org/2000/svg" xmlns:xlink="http://www.w3.org/1999/xlink">
    <!-- Generator: Sketch 44.1 (41455) - http://www.bohemiancoding.com/sketch -->
    <title>noun_729880_cc</title>
    <desc>Created with Sketch.</desc>
    <defs></defs>
    <g id="UI_App" stroke="none" stroke-width="1" fill="none" fill-rule="evenodd">
        <g id="01-Live" transform="translate(-1279.000000, -15.000000)" fill-rule="nonzero" fill="#2A43C9">
            <g id="noun_729880_cc" transform="translate(1279.000000, 15.000000)">
                <g id="Group">
                    <g>
                        <path d="M4.70119225,2.3255814 L4.70119225,30.2325581 L49.2988077,30.2325581 L49.2988077,2.3255814 L4.70119225,2.3255814 Z M4.11438152,-3.69482223e-13 L49.8856185,-3.69482223e-13 C50.8578783,-3.69740414e-13 51.6460507,0.780898692 51.6460507,1.74418605 L51.6460507,30.8139535 C51.6460507,31.7772408 50.8578783,32.5581395 49.8856185,32.5581395 L4.11438152,32.5581395 C3.14212167,32.5581395 2.35394933,31.7772408 2.35394933,30.8139535 L2.35394933,1.74418605 C2.35394933,0.780898692 3.14212167,-3.69353127e-13 4.11438152,-3.69482223e-13 Z" id="Rectangle-path"></path>
                        <path d="M2.35394933,32.5581395 L2.35394933,34.8837209 L51.6460507,34.8837209 L51.6460507,32.5581395 L2.35394933,32.5581395 Z M1.7671386,30.2325581 L52.2328614,30.2325581 C53.2051213,30.2325581 53.9932936,31.0134568 53.9932936,31.9767442 L53.9932936,35.4651163 C53.9932936,36.4284036 53.2051213,37.2093023 52.2328614,37.2093023 L1.7671386,37.2093023 C0.794878747,37.2093023 0.00670640835,36.4284036 0.00670640835,35.4651163 L0.00670640835,31.9767442 C0.00670640835,31.0134568 0.794878747,30.2325581 1.7671386,30.2325581 Z" id="Rectangle-path"></path>
                        <path d="M28.0079965,7.40882699 C27.439607,6.83019207 26.5240267,6.82663088 25.9552192,7.40882699 L19.1489791,14.3752738 C18.0444657,15.4878165 19.7006501,17.1560406 20.8051633,16.0434979 L25.4176584,11.3934973 C25.6447038,11.1646058 25.8287604,11.2325035 25.8287604,11.5695672 L25.8287604,24.4111081 C25.8287604,25.0574399 26.3486487,25.5813953 27.0000364,25.5813953 L27.0000364,25.5813953 C27.6469143,25.5813953 28.1713125,25.0616902 28.1713125,24.4111081 L28.1713125,11.5695672 C28.1713125,11.243435 28.3621091,11.1714006 28.5824145,11.3934973 L33.1949095,16.0434979 C34.2988372,17.1560406 35.9556071,15.4878165 34.8510938,14.3752738 L28.0079965,7.40882699 Z" id="Shape"></path>
                    </g>
                </g>
            </g>
        </g>
    </g>
</svg>