<?xml version="1.0" standalone="no"?>
<!DOCTYPE svg PUBLIC "-//W3C//DTD SVG 1.1//EN" "http://www.w3.org/Graphics/SVG/1.1/DTD/svg11.dtd" >
<svg xmlns="http://www.w3.org/2000/svg" xmlns:xlink="http://www.w3.org/1999/xlink" version="1.1">
<metadata>
Created by FontForge 20161116 at Fri Oct 14 21:37:52 2016
 By Jimmy Wärting
Copyright (c) 2010 by Emmanuel Rey, distributed by B&#38;P Foundry Srl, Switzerland, http://www.bpfoundry.com. All rights reserved.
</metadata>
<defs>
<font id="SimplonBP-Bold" horiz-adv-x="1142" >
  <font-face 
    font-family="Simplon BP Bold"
    font-weight="700"
    font-stretch="normal"
    units-per-em="2048"
    panose-1="0 0 0 0 0 0 0 0 0 0"
    ascent="1638"
    descent="-410"
    x-height="1057"
    cap-height="1434"
    bbox="-111 -397 1896 1790"
    underline-thickness="102"
    underline-position="-204"
    unicode-range="U+0020-FB04"
  />
<missing-glyph horiz-adv-x="748" 
d="M68 0v1365h544v-1365h-544zM136 68h408v1229h-408v-1229z" />
    <glyph glyph-name="uniFB01" unicode="fi" horiz-adv-x="1220" 
d="M27 813l0.000976562 244h149v106c0 180.667 90 271 270 271h261v-244h-183c-30.667 0 -51.334 -7 -62.001 -21s-16 -35 -16 -63v-49h261v-244h-261v-813h-270v813h-149zM827.001 0v1057h271v-1057h-271zM827.001 1194v240h271v-240h-271z" />
    <glyph glyph-name="uniFB02" unicode="fl" horiz-adv-x="1277" 
d="M27 813l0.000976562 244h149v106c0 180.667 90 271 270 271h261v-244h-183c-30.667 0 -51.334 -7 -62.001 -21s-16 -35 -16 -63v-49h261v-244h-261v-813h-270v813h-149zM821.001 270c0 -180 90.333 -270 271 -270h131v244h-54c-30.667 0 -51.167 7 -61.5 21
s-15.5 35 -15.5 63v1106h-271v-1164z" />
    <glyph glyph-name="uniFB03" unicode="ffi" horiz-adv-x="1892" 
d="M27 813l0.00195312 244h149v106c0 180.667 90 271 270 271h261v-244h-183c-30.667 0 -51.334 -7 -62.001 -21s-16 -35 -16 -63v-49h402v106c0 180.667 90 271 270 271h260v-244h-182c-30.667 0 -51.334 -7 -62.001 -21s-16 -35 -16 -63v-49h260v-244h-260v-813h-270v813
h-402v-813h-270v813h-149zM1499 0v1057h270v-1057h-270zM1499 1194v240h270v-240h-270z" />
    <glyph glyph-name="uniFB04" unicode="ffl" horiz-adv-x="1951" 
d="M27 813l0.00195312 244h149v106c0 180.667 90 271 270 271h261v-244h-183c-30.667 0 -51.334 -7 -62.001 -21s-16 -35 -16 -63v-49h402v106c0 180.667 90 271 270 271h260v-244h-182c-30.667 0 -51.334 -7 -62.001 -21s-16 -35 -16 -63v-49h260v-244h-260v-813h-270v813
h-402v-813h-270v813h-149zM1495 270c0 -180 90.001 -270 270.001 -270h131v244h-53c-30.667 0 -51.334 7 -62.001 21s-16 35 -16 63v1106h-270v-1164z" />
    <glyph glyph-name=".notdef" horiz-adv-x="748" 
d="M68 0v1365h544v-1365h-544zM136 68h408v1229h-408v-1229z" />
    <glyph glyph-name="space" unicode=" " horiz-adv-x="430" 
 />
    <glyph glyph-name="exclam" unicode="!" horiz-adv-x="614" 
d="M143 0v328h328v-328h-328zM172 430v1004h270v-1004h-270z" />
    <glyph glyph-name="quotedbl" unicode="&#x22;" horiz-adv-x="1009" 
d="M133 975v459h270v-459h-270zM606 975v459h271v-459h-271z" />
    <glyph glyph-name="numbersign" unicode="#" horiz-adv-x="1433" 
d="M109 367v245h188l53 209h-190v246h252l92 367h260l-92 -367h264l92 367h260l-92 -367h129v-246h-190l-54 -209h193v-245h-254l-90 -367h-260l90 367h-264l-90 -367h-261l91 367h-127zM557 612h264l53 209h-264z" />
    <glyph glyph-name="dollar" unicode="$" horiz-adv-x="1079" 
d="M53 453l271.001 -0.00390625c2 -56 18.167 -105.333 48.5 -148s72.166 -68.667 125.499 -78v363l-82 28c-109.333 36.667 -194 91.334 -254 164.001s-90 161 -90 265c0 120.667 40.167 216.5 120.5 287.5s182.166 110.167 305.499 117.5v186h88v-186
c113.333 -8.66699 205.833 -50 277.5 -124s114.834 -169.333 129.501 -286h-270c-6.66699 44 -22.167 80 -46.5 108s-54.5 46 -90.5 54v-354l88 -29c120.667 -41.333 207.5 -98.666 260.5 -171.999s79.5 -162.666 79.5 -267.999c0 -113.333 -38.5 -206.5 -115.5 -279.5
s-181.167 -112.833 -312.5 -119.5v-187h-88v187c-132 8.66699 -237.667 55.334 -317 140.001s-122 195 -128 331zM342.001 1047c0 -38.667 13.833 -71.5 41.5 -98.5s62.834 -48.167 105.501 -63.5l9 -4v327c-48.667 -6 -86.834 -22.667 -114.501 -50
s-41.5 -64.333 -41.5 -111zM586.001 224.996c48.667 6 87 22.832 115 50.499s42 62.834 42 105.501c0 84.667 -50.333 144 -151 178l-6 2v-336z" />
    <glyph glyph-name="percent" unicode="%" horiz-adv-x="1812" 
d="M109 893v250c0 89.333 23.833 162.166 71.5 218.499s120.5 84.5 218.5 84.5s170.667 -28.167 218 -84.5s71 -129.166 71 -218.499v-250c0 -89.333 -23.667 -162.166 -71 -218.499s-120 -84.5 -218 -84.5s-170.833 28.167 -218.5 84.5s-71.5 129.166 -71.5 218.499z
M299 862c0 -68 33.333 -102.002 100 -102.002c34 0 59 9.33301 75 28s24 43.334 24 74.001v312c0 30.667 -8 55.334 -24 74.001s-41 28 -75 28c-66.667 0 -100 -34 -100 -102v-312zM305 -0.00195312l985 1434h217l-985 -1434h-217zM1124 290.998v250
c0 89.333 24 162.166 72 218.499s121 84.5 219 84.5s170.667 -28.167 218 -84.5s71 -129.166 71 -218.499v-250c0 -89.333 -23.667 -162.166 -71 -218.499s-120 -84.5 -218 -84.5s-171 28.167 -219 84.5s-72 129.166 -72 218.499zM1315 259.998c0 -68 33.333 -102 100 -102
c65.333 0 98 34 98 102v311c0 30.667 -7.83301 55.5 -23.5 74.5s-40.5 28.5 -74.5 28.5c-66.667 0 -100 -34.333 -100 -103v-311z" />
    <glyph glyph-name="ampersand" unicode="&#x26;" horiz-adv-x="1253" 
d="M80 403c0 67.333 13.333 128.166 40 182.499s63.667 96.166 111 125.499c-48.667 30.667 -86 75.834 -112 135.501s-39 118.834 -39 177.501c0 122.667 39.333 221.667 118 297s190 113 334 113h218v-244h-199c-63.333 0 -112.666 -14.667 -147.999 -44
s-53 -73.333 -53 -132c0 -59.333 17.667 -103.833 53 -133.5s84.666 -44.5 147.999 -44.5h199v163h270v-163h248v-244h-248v-592h-475c-144 0 -257.5 36.167 -340.5 108.5s-124.5 170.5 -124.5 294.5zM350 418c0 -55.333 17.333 -98.168 52 -128.501s81.667 -45.5 141 -45.5
h207v348h-207c-59.333 0 -106.333 -15.167 -141 -45.5s-52 -73.166 -52 -128.499z" />
    <glyph glyph-name="quotesingle" unicode="'" horiz-adv-x="536" 
d="M133 975v459h270v-459h-270z" />
    <glyph glyph-name="parenleft" unicode="(" horiz-adv-x="610" 
d="M166 -82v1245c0 180.667 90 271 270 271h131v-250h-73c-30.667 0 -51.334 -7 -62.001 -21s-16 -35 -16 -63v-1118c0 -28 5.33301 -49 16 -63s31.334 -21 62.001 -21h73v-250h-131c-180 0 -270 90 -270 270z" />
    <glyph glyph-name="parenright" unicode=")" horiz-adv-x="610" 
d="M43 -102h74c30.667 0 51.334 7 62.001 21s16 35 16 63v1118c0 28 -5.33301 49 -16 63s-31.334 21 -62.001 21h-74v250h131c180 0 270 -90.333 270 -271v-1245c0 -180 -90 -270 -270 -270h-131v250z" />
    <glyph glyph-name="asterisk" unicode="*" horiz-adv-x="1097" 
d="M106 1024l78 233l242 -77v254h246v-254l241 77l78 -233l-241 -78l147 -207l-199 -145l-147 207l-152 -207l-198 145l147 207z" />
    <glyph glyph-name="plus" unicode="+" 
d="M100 440v246h349v348h245v-348h348v-246h-348v-348h-245v348h-349z" />
    <glyph glyph-name="comma" unicode="," horiz-adv-x="614" 
d="M143 0v328h328v-328l-88 -233h-193l89 233h-136z" />
    <glyph glyph-name="hyphen" unicode="-" horiz-adv-x="757" 
d="M82 440v246h594v-246h-594z" />
    <glyph glyph-name="period" unicode="." horiz-adv-x="614" 
d="M143 0v328h328v-328h-328z" />
    <glyph glyph-name="slash" unicode="/" horiz-adv-x="772" 
d="M-41 0l580 1434h274l-580 -1434h-274z" />
    <glyph glyph-name="zero" unicode="0" 
d="M100 465v504c0 148.667 41.167 266.667 123.5 354s198.166 131 347.499 131s265.166 -43.667 347.499 -131s123.5 -205.333 123.5 -354v-504c0 -148.667 -41.167 -266.667 -123.5 -354s-198.166 -131 -347.499 -131s-265.166 43.667 -347.499 131
s-123.5 205.333 -123.5 354zM371 430c0 -63.333 17.5 -113.666 52.5 -150.999s84.167 -56 147.5 -56s112.666 18.667 147.999 56s53 87.666 53 150.999v574c0 63.333 -17.667 113.5 -53 150.5s-84.666 55.5 -147.999 55.5s-112.5 -18.5 -147.5 -55.5
s-52.5 -87.167 -52.5 -150.5v-574z" />
    <glyph glyph-name="one" unicode="1" horiz-adv-x="753" 
d="M66 868v328l274 238h270v-1434h-270v1106z" />
    <glyph glyph-name="two" unicode="2" horiz-adv-x="1087" 
d="M68 0v244l540 526c88.667 84.667 133 169.334 133 254.001c0 54 -17.667 98.5 -53 133.5s-84.333 52.5 -147 52.5c-64 0 -113.833 -18.5 -149.5 -55.5s-53.5 -87.167 -53.5 -150.5v-21h-270v4c4 144 47.333 257.833 130 341.5s197 125.5 343 125.5
c142.667 0 256.5 -39.333 341.5 -118s127.5 -181.334 127.5 -308.001c0 -89.333 -18.833 -169.833 -56.5 -241.5s-94.167 -144.167 -169.5 -217.5l-333 -325h559v-244h-942z" />
    <glyph glyph-name="three" unicode="3" horiz-adv-x="1099" 
d="M66 408l0.00292969 1.99902h268v-2c4 -56 25.167 -100.833 63.5 -134.5s87.5 -50.5 147.5 -50.5c59.333 0 106.166 15.667 140.499 47s51.5 75 51.5 131c0 58 -19.333 104.333 -58 139s-89.667 52 -153 52h-118v244h118c66 0 117.667 14.833 155 44.5
s56 70.834 56 123.501c0 63.333 -17.5 113.5 -52.5 150.5s-84.167 55.5 -147.5 55.5c-60 0 -107.833 -16.667 -143.5 -50s-55.5 -78 -59.5 -134v-2h-268v2c10 132 56 236.333 138 313s193 115 333 115c144 0 258.5 -41.667 343.5 -125s127.5 -188.333 127.5 -315
c0 -56.667 -13 -112.5 -39 -167.5s-63.667 -100.167 -113 -135.5c44.667 -28 81.167 -74 109.5 -138s42.5 -126 42.5 -186c0 -126.667 -41.333 -226.167 -124 -298.5s-196.334 -108.5 -341.001 -108.5c-140.667 0 -252.834 38.333 -336.501 115s-130.5 181 -140.5 313z" />
    <glyph glyph-name="four" unicode="4" horiz-adv-x="1064" 
d="M0 326v239l618 869h271v-869h149v-239h-149v-326h-271v326h-618zM313 565h305v428z" />
    <glyph glyph-name="five" unicode="5" horiz-adv-x="1101" 
d="M100 408l-0.00195312 2.00098h269v-2c4 -55.333 24.167 -100 60.5 -134s83.5 -51 141.5 -51c65.333 0 115.166 17 149.499 51s51.5 79.333 51.5 136v77c0 63.333 -17.667 113.666 -53 150.999s-84.666 56 -147.999 56c-92 0 -152.667 -36.667 -182 -110h-270v850h868
v-244h-598v-299c20 12.667 49.333 23.667 88 33s77 14 115 14c142.667 0 253.334 -43.667 332.001 -131s118 -205.333 118 -354v-66c0 -125.333 -42.333 -224.5 -127 -297.5s-195 -109.5 -331 -109.5c-151.333 0 -267.166 37.667 -347.499 113s-125.833 180.333 -136.5 315z
" />
    <glyph glyph-name="six" unicode="6" horiz-adv-x="1130" 
d="M100 453v516c0 148.667 41.167 266.667 123.5 354s198.166 131 347.499 131c140 0 250.667 -38.167 332 -114.5s127 -180.833 137 -313.5v-2h-268v2c-4 56.667 -23.667 101.5 -59 134.5s-82.666 49.5 -141.999 49.5c-63.333 0 -112.5 -18.5 -147.5 -55.5
s-52.5 -87.167 -52.5 -150.5v-144c20 16.667 49.5 31.5 88.5 44.5s80.5 19.5 124.5 19.5c142.667 0 254.667 -42.833 336 -128.5s122 -199.167 122 -340.5v-4c0 -144 -41.5 -258.5 -124.5 -343.5s-198.5 -127.5 -346.5 -127.5s-263.5 42.5 -346.5 127.5
s-124.5 200.167 -124.5 345.5zM371 430c0 -63.333 17.501 -113.665 52.501 -150.998s84.167 -56 147.5 -56s112.666 18.667 147.999 56s53 87.666 53 150.999v43c0 63.333 -17.667 113.666 -53 150.999s-84.666 56 -147.999 56c-62.667 0 -111.334 -17.833 -146.001 -53.5
s-52.667 -84.167 -54 -145.5v-51z" />
    <glyph glyph-name="seven" unicode="7" horiz-adv-x="954" 
d="M6 1190v244h930v-244l-447 -1190h-284l446 1190h-645z" />
    <glyph glyph-name="eight" unicode="8" horiz-adv-x="1126" 
d="M92 416c0 61.333 12.002 119.166 36.002 173.499s58.333 98.833 103 133.5c-83.333 76 -125 176.333 -125 301c0 130.667 41.833 235 125.5 313s194.167 117 331.5 117s247.833 -39 331.5 -117s125.5 -182.333 125.5 -313c0 -124.667 -41.667 -225 -125 -301
c44.667 -34.667 79 -79.167 103 -133.5s36 -112.166 36 -173.499c0 -132.667 -44.333 -238.5 -133 -317.5s-201.334 -118.5 -338.001 -118.5s-249.334 39.5 -338.001 118.5s-133 184.833 -133 317.5zM362.002 416c0 -56.667 18.833 -103 56.5 -139s85.834 -54 144.501 -54
s106.834 18 144.501 54s56.5 82.333 56.5 139c0 57.333 -18.833 103.666 -56.5 138.999s-85.834 53 -144.501 53s-106.834 -17.667 -144.501 -53s-56.5 -81.666 -56.5 -138.999zM377.002 1024c0 -51.333 16.833 -95.166 50.5 -131.499s78.834 -54.5 135.501 -54.5
s102 18.167 136 54.5s51 80.166 51 131.499s-17 95.166 -51 131.499s-79.333 54.5 -136 54.5s-101.834 -18.167 -135.501 -54.5s-50.5 -80.166 -50.5 -131.499z" />
    <glyph glyph-name="nine" unicode="9" horiz-adv-x="1130" 
d="M88 979l0.00292969 4.00195c0 144 41.5 258.5 124.5 343.5s198.5 127.5 346.5 127.5s263.5 -42.5 346.5 -127.5s124.5 -200.167 124.5 -345.5v-516c0 -148.667 -41.167 -266.667 -123.5 -354s-198.166 -131 -347.499 -131c-140 0 -250.667 38.167 -332 114.5
s-127 180.833 -137 313.5v2h268v-2c4 -56.667 23.667 -101.667 59 -135s82.666 -50 141.999 -50c63.333 0 112.666 18.667 147.999 56s53 87.666 53 150.999v143c-20 -16.667 -49.333 -31.334 -88 -44.001s-80.334 -19 -125.001 -19
c-142.667 0 -254.834 42.833 -336.501 128.5s-122.5 199.167 -122.5 340.5zM358.003 961.002c0 -63.333 17.666 -113.666 52.999 -150.999s84.666 -56 147.999 -56c62.667 0 111.5 17.667 146.5 53s53.167 83.666 54.5 144.999v52c0 63.333 -17.667 113.5 -53 150.5
s-84.666 55.5 -147.999 55.5s-112.666 -18.5 -147.999 -55.5s-53 -87.167 -53 -150.5v-43z" />
    <glyph glyph-name="colon" unicode=":" horiz-adv-x="614" 
d="M143 0v328h328v-328h-328zM143 729v328h328v-328h-328z" />
    <glyph glyph-name="semicolon" unicode=";" horiz-adv-x="614" 
d="M143 0v328h328v-328l-88 -233h-193l89 233h-136zM143 729v328h328v-328h-328z" />
    <glyph glyph-name="less" unicode="&#x3c;" 
d="M100 393v275l942 403v-268l-636 -273l636 -272v-268z" />
    <glyph glyph-name="equal" unicode="=" 
d="M100 195v245h942v-245h-942zM100 686v246h942v-246h-942z" />
    <glyph glyph-name="greater" unicode="&#x3e;" 
d="M100 -10v268l637 272l-637 273v268l942 -403v-275z" />
    <glyph glyph-name="question" unicode="?" horiz-adv-x="1079" 
d="M55 1024l0.00195312 3.99805c12 132.667 58.333 236.834 139 312.501s190.667 113.5 330 113.5c147.333 0 262.666 -42.167 345.999 -126.5s125 -197.833 125 -340.5c0 -66 -15 -127.167 -45 -183.5s-67.333 -105.166 -112 -146.499l-107 -98
c-28 -26 -47 -47.333 -57 -64s-15 -35.667 -15 -57v-8h-270v45c0 54 8.66699 97 26 129s51.666 71.667 102.999 119l107 98c15.333 14 27 25 35 33s18 20.167 30 36.5s20.833 33.833 26.5 52.5s8.5 39 8.5 61c0 63.333 -17.667 113.5 -53 150.5s-84.666 55.5 -147.999 55.5
c-58.667 0 -105.334 -16.167 -140.001 -48.5s-54.667 -76.833 -60 -133.5v-4h-269zM360.002 -0.00195312v328h328v-328h-328z" />
    <glyph glyph-name="at" unicode="@" horiz-adv-x="1916" 
d="M113 432l-0.000976562 192.997c0 117.333 14.5 222.833 43.5 316.5s69 172 120 235s112.5 115.667 184.5 158s149 72.833 231 91.5s170.667 28 266 28s184.166 -9.33301 266.499 -28s159.333 -49.167 231 -91.5s133 -95 184 -158s91.167 -141.333 120.5 -235
s44 -199.167 44 -316.5v-367c0 -81.333 -28.667 -148 -86 -200s-133 -78 -227 -78c-153.333 0 -264 40 -332 120c-26.667 -38 -65.167 -67.5 -115.5 -88.5s-108.166 -31.5 -173.499 -31.5c-123.333 0 -219.333 27.667 -288 83s-103 132 -103 230c0 78 15.333 141.333 46 190
s82.334 90.334 155.001 125.001c32 15.333 78.333 28.5 139 39.5s113.834 18.833 159.501 23.5s104.5 9.66699 176.5 15c-9.33301 48.667 -30.833 86.834 -64.5 114.501s-77.834 41.5 -132.501 41.5c-46 0 -85 -10.333 -117 -31s-55 -49.334 -69 -86.001h-272
c22 112.667 72.167 200.834 150.5 264.501s180.833 95.5 307.5 95.5c149.333 0 265.333 -43.667 348 -131s124 -205.333 124 -354v-303c0 -46.667 20.333 -70 61 -70c42 0 63 23.333 63 70v334c0 183.333 -51.667 325 -155 425s-250.333 150 -441 150
s-337.667 -50 -441 -150s-155 -241.667 -155 -425v-205c0 -183.333 51.667 -325.166 155 -425.499s250.333 -150.5 441 -150.5c146 0 268.333 31 367 93l123 -226c-132 -76 -295.333 -114 -490 -114c-95.333 0 -184 9.33301 -266 28s-159 49.167 -231 91.5
s-133.5 95 -184.5 158s-91 141.333 -120 235s-43.5 199.167 -43.5 316.5zM749.999 323.997c0 -29.333 12.667 -54.5 38 -75.5s65.666 -31.5 120.999 -31.5c72 0 131.667 19 179 57s71 89.333 71 154v35c-197.333 -12.667 -314.666 -29 -351.999 -49
c-22 -11.333 -37 -23.5 -45 -36.5s-12 -30.833 -12 -53.5z" />
    <glyph glyph-name="A" unicode="A" horiz-adv-x="1282" 
d="M-2 0l512 1434h262l512 -1434h-287l-102 289h-508l-102 -289h-287zM481 549h320l-160 465z" />
    <glyph glyph-name="B" unicode="B" horiz-adv-x="1280" 
d="M133 0l0.000976562 1434h594c143.333 0 254.666 -37.167 333.999 -111.5s119 -174.5 119 -300.5c0 -126.667 -43 -223 -129 -289c51.333 -38.667 91.333 -85 120 -139s43 -112 43 -174c0 -129.333 -39.333 -231.666 -118 -306.999s-190.667 -113 -336 -113h-627z
M408.001 271.999h360c56 0 98.667 13.667 128 41s44 66.333 44 117c0 50 -15.5 88.833 -46.5 116.5s-72.833 41.5 -125.5 41.5h-360v-316zM408.001 859.999h325c52.667 0 94.5 13.333 125.5 40s46.5 64 46.5 112c0 48.667 -15.333 85.667 -46 111s-72.667 38 -126 38h-325
v-301z" />
    <glyph glyph-name="C" unicode="C" horiz-adv-x="1241" 
d="M90 510l-0.000976562 414.001c0 160.667 47.833 289.167 143.5 385.5s228.167 144.5 397.5 144.5c164.667 0 294.334 -45.167 389.001 -135.5s145 -211.833 151 -364.5h-276c-6.66699 70.667 -34.5 126.334 -83.5 167.001s-109.167 61 -180.5 61
c-77.333 0 -141 -22.833 -191 -68.5s-75 -108.834 -75 -189.501v-414c0 -80.667 25 -143.834 75 -189.501s113.667 -68.5 191 -68.5c72 0 132.333 20 181 60s76.334 95.667 83.001 167h276c-6 -152.667 -56.333 -274 -151 -364s-224.334 -135 -389.001 -135
c-169.333 0 -301.833 48.167 -397.5 144.5s-143.5 224.833 -143.5 385.5z" />
    <glyph glyph-name="D" unicode="D" horiz-adv-x="1304" 
d="M133 0v1434h541c169.333 0 301.666 -48.167 396.999 -144.5s143 -225.166 143 -386.499v-373c0 -161.333 -47.667 -290 -143 -386s-227.666 -144 -396.999 -144h-541zM408 271.999l266 -0.00195312c77.333 0 141 22.833 191 68.5s75 108.834 75 189.501v373
c0 80.667 -25 143.834 -75 189.501s-113.667 68.5 -191 68.5h-266v-889z" />
    <glyph glyph-name="E" unicode="E" horiz-adv-x="1105" 
d="M133 0v1434h873v-273h-598v-301h598v-272h-598v-316h598v-272h-873z" />
    <glyph glyph-name="F" unicode="F" horiz-adv-x="1085" 
d="M133 0v1434h873v-273h-598v-301h598v-272h-598v-588h-275z" />
    <glyph glyph-name="G" unicode="G" horiz-adv-x="1257" 
d="M90 510l-0.000976562 414.002c0 160.667 47.833 289.167 143.5 385.5s228.167 144.5 397.5 144.5c159.333 0 285.833 -42.5 379.5 -127.5s146.5 -200.167 158.5 -345.5h-276c-12 63.333 -42 112.666 -90 147.999s-105.333 53 -172 53c-77.333 0 -141 -22.833 -191 -68.5
s-75 -108.834 -75 -189.501v-414c0 -80.667 25 -143.834 75 -189.501s113.667 -68.5 191 -68.5s141 22.833 191 68.5s75 108.834 75 189.501v37h-266v272h540v-309c0 -161.333 -47.667 -290 -143 -386s-227.666 -144 -396.999 -144s-301.833 48.167 -397.5 144.5
s-143.5 224.833 -143.5 385.5z" />
    <glyph glyph-name="H" unicode="H" horiz-adv-x="1347" 
d="M133 0v1434h275v-574h532v574h274v-1434h-274v588h-532v-588h-275z" />
    <glyph glyph-name="I" unicode="I" horiz-adv-x="540" 
d="M133 0v1434h275v-1434h-275z" />
    <glyph glyph-name="J" unicode="J" horiz-adv-x="964" 
d="M-2 410h276c4 -50.667 19 -89.667 45 -117s61 -41 105 -41c50.667 0 88.5 15.167 113.5 45.5s37.5 70.5 37.5 120.5v1016h275v-1024c0 -140.667 -37 -247.5 -111 -320.5s-179 -109.5 -315 -109.5s-241 36.5 -315 109.5s-111 179.833 -111 320.5z" />
    <glyph glyph-name="K" unicode="K" horiz-adv-x="1320" 
d="M133 0v1434h279v-619l526 619h350l-504 -592l555 -842h-335l-408 621l-184 -215v-406h-279z" />
    <glyph glyph-name="L" unicode="L" horiz-adv-x="1005" 
d="M133 0v1434h275v-1162h598v-272h-873z" />
    <glyph glyph-name="M" unicode="M" horiz-adv-x="1523" 
d="M133 0v1434h275l354 -738l354 738h275v-1434h-273v901l-248 -516h-217l-247 516v-901h-273z" />
    <glyph glyph-name="N" unicode="N" horiz-adv-x="1347" 
d="M133 0v1434h275l532 -924v924h274v-1434h-274l-532 924v-924h-275z" />
    <glyph glyph-name="O" unicode="O" horiz-adv-x="1261" 
d="M90 510v414c0 160.667 47.833 289.167 143.5 385.5s228.167 144.5 397.5 144.5s301.666 -48 396.999 -144s143 -224.667 143 -386v-414c0 -161.333 -47.667 -290 -143 -386s-227.666 -144 -396.999 -144s-301.833 48.167 -397.5 144.5s-143.5 224.833 -143.5 385.5z
M365 510c0 -80.667 25 -143.834 75 -189.501s113.667 -68.5 191 -68.5s141 22.833 191 68.5s75 108.834 75 189.501v414c0 80.667 -25 143.834 -75 189.501s-113.667 68.5 -191 68.5s-141 -22.833 -191 -68.5s-75 -108.834 -75 -189.501v-414z" />
    <glyph glyph-name="P" unicode="P" horiz-adv-x="1243" 
d="M133 0v1434h586c82 0 155.333 -13.5 220 -40.5s116.667 -63.667 156 -110s69 -98.666 89 -156.999s30 -121.166 30 -188.499c0 -66.667 -10 -129.334 -30 -188.001s-49.667 -111.334 -89 -158.001s-91.333 -83.667 -156 -111s-138 -41 -220 -41h-311v-440h-275zM408 713
l311 0.000976562c71.333 0 126 22.167 164 66.5s57 97.166 57 158.499c0 60.667 -19 113 -57 157s-92.667 66 -164 66h-311v-448z" />
    <glyph glyph-name="Q" unicode="Q" horiz-adv-x="1284" 
d="M90 510l0.000976562 413.999c0 160.667 47.833 289.167 143.5 385.5s228.167 144.5 397.5 144.5s301.666 -48 396.999 -144s143 -224.667 143 -386v-414c0 -121.333 -26.333 -223.666 -79 -306.999l110 -113l-186 -182l-121 125c-74.667 -35.333 -162.667 -53 -264 -53
c-169.333 0 -301.833 48.167 -397.5 144.5s-143.5 224.833 -143.5 385.5zM365.001 509.999c0 -80.667 25 -143.833 75 -189.5s113.667 -68.5 191 -68.5c22 0 38.333 1.33301 49 4l-121 123l186 182l138 -141c9.33301 31.333 14 61.333 14 90v414
c0 80.667 -25 143.834 -75 189.501s-113.667 68.5 -191 68.5s-141 -22.833 -191 -68.5s-75 -108.834 -75 -189.501v-414z" />
    <glyph glyph-name="R" unicode="R" horiz-adv-x="1265" 
d="M133 0v1434h604c144 0 255.5 -37.667 334.5 -113s118.5 -178.333 118.5 -309c0 -107.333 -26.5 -196.333 -79.5 -267s-129.5 -117.667 -229.5 -141l356 -604h-315l-347 590h-167v-590h-275zM408 856l335 0.000976562c52.667 0 94.5 13.333 125.5 40s46.5 64 46.5 112
c0 49.333 -15.333 87.166 -46 113.499s-72.667 39.5 -126 39.5h-335v-305z" />
    <glyph glyph-name="S" unicode="S" horiz-adv-x="1107" 
d="M43 453l282.998 0.00488281c8 -60.667 34.167 -109.334 78.5 -146.001s100.5 -55 168.5 -55c62.667 0 112.5 12 149.5 36s55.5 59.667 55.5 107c0 39.333 -11.833 71.166 -35.5 95.499s-60.834 43.166 -111.501 56.499l-242 65c-108 29.333 -189.667 80.5 -245 153.5
s-83 163.167 -83 270.5c0 69.333 13 131.166 39 185.499s61.333 98.166 106 131.499s95 58.5 151 75.5s116 25.5 180 25.5c140.667 0 254.334 -37.5 341.001 -112.5s138 -174.833 154 -299.5h-282c-12 45.333 -38.833 80 -80.5 104s-87.5 36 -137.5 36
c-60 0 -107.667 -12.333 -143 -37s-53 -61 -53 -109c0 -69.333 47.667 -116.333 143 -141l234 -64c112.667 -30 197.5 -80.5 254.5 -151.5s85.5 -165.833 85.5 -284.5c0 -130.667 -41.5 -232.5 -124.5 -305.5s-201.5 -109.5 -355.5 -109.5
c-155.333 0 -280.666 43 -375.999 129s-146.666 200.667 -153.999 344z" />
    <glyph glyph-name="T" unicode="T" horiz-adv-x="1077" 
d="M-2 1161v273h1081v-273h-399v-1161h-283v1161h-399z" />
    <glyph glyph-name="U" unicode="U" horiz-adv-x="1310" 
d="M115 510l-0.000976562 924h274v-924c0 -80.667 25 -143.834 75 -189.501s113.667 -68.5 191 -68.5c78 0 142 22.833 192 68.5s75 108.834 75 189.501v924h274v-924c0 -160.667 -47.833 -289.167 -143.5 -385.5s-228.167 -144.5 -397.5 -144.5s-301.666 48 -396.999 144
s-143 224.667 -143 386z" />
    <glyph glyph-name="V" unicode="V" horiz-adv-x="1286" 
d="M-2 1434h289l356 -998l356 998h289l-512 -1434h-266z" />
    <glyph glyph-name="W" unicode="W" horiz-adv-x="1540" 
d="M25 1434h276l166 -971l170 766h266l170 -766l166 971h277l-265 -1434h-297l-184 831l-184 -831h-297z" />
    <glyph glyph-name="X" unicode="X" horiz-adv-x="1273" 
d="M6 0l475 741l-444 693h313l287 -451l287 451h313l-444 -693l475 -741h-314l-317 504l-318 -504h-313z" />
    <glyph glyph-name="Y" unicode="Y" horiz-adv-x="1241" 
d="M-25 1434h312l334 -598l333 598h312l-508 -912v-522h-275v522z" />
    <glyph glyph-name="Z" unicode="Z" horiz-adv-x="1193" 
d="M49 0v272l717 889h-707v273h1071v-273l-716 -889h727v-272h-1092z" />
    <glyph glyph-name="bracketleft" unicode="[" horiz-adv-x="616" 
d="M166 -352v1786h401v-250h-151v-1286h151v-250h-401z" />
    <glyph glyph-name="backslash" unicode="\" horiz-adv-x="772" 
d="M-41 1434h274l580 -1434h-274z" />
    <glyph glyph-name="bracketright" unicode="]" horiz-adv-x="616" 
d="M49 -102h152v1286h-152v250h402v-1786h-402v250z" />
    <glyph glyph-name="asciicircum" unicode="^" horiz-adv-x="1282" 
d="M102 614l410 820h258l410 -820h-283l-256 512l-256 -512h-283z" />
    <glyph glyph-name="underscore" unicode="_" horiz-adv-x="880" 
d="M-31 -70h942v-245h-942v245z" />
    <glyph glyph-name="grave" unicode="`" horiz-adv-x="657" 
d="M78 1434h352l123 -265h-234z" />
    <glyph glyph-name="a" unicode="a" 
d="M84 293c0 78 15.3311 141.332 45.998 189.999s82.334 90.334 155.001 125.001c32 15.333 78.333 28.5 139 39.5s113.834 18.833 159.501 23.5s104.5 9.66699 176.5 15v2c-9.33301 48 -30.833 85.667 -64.5 113s-77.834 41 -132.501 41c-46 0 -85 -10.333 -117 -31
s-55 -49.334 -69 -86.001h-273c22 112.667 72.333 200.834 151 264.501s181.334 95.5 308.001 95.5c149.333 0 265.166 -43.667 347.499 -131s123.5 -205.333 123.5 -354v-600h-270v121c-57.333 -94 -155.666 -141 -294.999 -141c-120.667 0 -215 27.667 -283 83
s-102 132 -102 230zM353.998 323.999c0 -29.333 12.832 -54.5 38.499 -75.5s66.167 -31.5 121.5 -31.5c72 0 131.667 19 179 57s71 89.333 71 154v35c-197.333 -12.667 -314.666 -29 -351.999 -49c-22 -11.333 -37.167 -23.5 -45.5 -36.5s-12.5 -30.833 -12.5 -53.5z" />
    <glyph glyph-name="b" unicode="b" horiz-adv-x="1155" 
d="M123 0v1434.01h270v-469c23.333 35.333 58.5 64.166 105.5 86.499s94.5 33.5 142.5 33.5c44 0 86.333 -5.83301 127 -17.5s79 -29.834 115 -54.501s67.5 -54.667 94.5 -90s48.333 -78.333 64 -129s23.5 -106.334 23.5 -167.001v-189
c0 -60.667 -7.83301 -116.334 -23.5 -167.001s-37 -93.667 -64 -129s-58.5 -65.333 -94.5 -90s-74.333 -42.834 -115 -54.501s-83 -17.5 -127 -17.5c-48 0 -95.5 11.167 -142.5 33.5s-82.167 51.166 -105.5 86.499v-100h-270zM393 449.006
c0 -67.333 19.5 -118.333 58.5 -153s86.5 -52 142.5 -52s103.5 17.333 142.5 52s58.5 85.667 58.5 153v167c0 67.333 -19.5 118.333 -58.5 153s-86.5 52 -142.5 52s-103.5 -17.333 -142.5 -52s-58.5 -85.667 -58.5 -153v-167z" />
    <glyph glyph-name="c" unicode="c" horiz-adv-x="1101" 
d="M90 465v134.997c0 148.667 41.167 266.667 123.5 354s198.166 131 347.499 131c134.667 0 242.5 -36 323.5 -108s128.833 -171 143.5 -297h-270c-8 50 -29 89.5 -63 118.5s-78.667 43.5 -134 43.5c-63.333 0 -112.666 -18.667 -147.999 -56s-53 -87.666 -53 -150.999
v-205c0 -63.333 17.667 -113.666 53 -150.999s84.666 -56 147.999 -56c56 0 101 14.333 135 43s54.667 68.334 62 119.001h270c-14.667 -126 -62.5 -225 -143.5 -297s-188.833 -108 -323.5 -108c-149.333 0 -265.166 43.667 -347.499 131s-123.5 205.333 -123.5 354z" />
    <glyph glyph-name="d" unicode="d" horiz-adv-x="1155" 
d="M90 438v188.994c0 60.667 7.83301 116.334 23.5 167.001s37 93.667 64 129s58.5 65.333 94.5 90s74.333 42.834 115 54.501s83 17.5 127 17.5c48 0 95.5 -11.167 142.5 -33.5s82.167 -51.166 105.5 -86.499v469h270v-1434h-270v100
c-23.333 -35.333 -58.5 -64.166 -105.5 -86.499s-94.5 -33.5 -142.5 -33.5c-44 0 -86.333 5.83301 -127 17.5s-79 29.834 -115 54.501s-67.5 54.667 -94.5 90s-48.333 78.333 -64 129s-23.5 106.334 -23.5 167.001zM360 448.994c0 -67.333 19.5 -118.333 58.5 -153
s86.5 -52 142.5 -52s103.5 17.333 142.5 52s58.5 85.667 58.5 153v167c0 67.333 -19.5 118.333 -58.5 153s-86.5 52 -142.5 52s-103.5 -17.333 -142.5 -52s-58.5 -85.667 -58.5 -153v-167z" />
    <glyph glyph-name="e" unicode="e" horiz-adv-x="1120" 
d="M90 465l0.00195312 134.999c0 148.667 41.167 266.667 123.5 354s198.166 131 347.499 131s265.166 -43.667 347.499 -131s123.5 -205.333 123.5 -354v-164h-672v-6c0 -63.333 17.667 -113.666 53 -150.999s84.666 -56 147.999 -56c46 0 85.167 10.333 117.5 31
s55.5 49.334 69.5 86.001h274c-22 -112.667 -72.667 -200.834 -152 -264.501s-182.333 -95.5 -309 -95.5c-149.333 0 -265.166 43.667 -347.499 131s-123.5 205.333 -123.5 354zM360.002 658.999l400 -0.000976562v3c-4 56 -23.167 100 -57.5 132s-81.5 48 -141.5 48
c-59.333 0 -106.333 -16.167 -141 -48.5s-54.667 -76.166 -60 -131.499v-3z" />
    <glyph glyph-name="f" unicode="f" horiz-adv-x="704" 
d="M27 813l0.000976562 244h149v106c0 180.667 90 271 270 271h261v-244h-183c-30.667 0 -51.334 -7 -62.001 -21s-16 -35 -16 -63v-49h261v-244h-261v-813h-270v813h-149z" />
    <glyph glyph-name="g" unicode="g" horiz-adv-x="1153" 
d="M88 514l0.000976562 112.997c0 60.667 7.83301 116.334 23.5 167.001s37 93.667 64 129s58.5 65.333 94.5 90s74.333 42.834 115 54.501s83 17.5 127 17.5c48 0 95.5 -11.167 142.5 -33.5s82.167 -51.166 105.5 -86.499v92h270v-969
c0 -148.667 -41.167 -266.667 -123.5 -354s-198.166 -131 -347.499 -131c-132 0 -238.333 34.667 -319 104s-129.334 165 -146.001 287h271c10 -46.667 31.5 -83 64.5 -109s76.167 -39 129.5 -39c63.333 0 112.666 18.667 147.999 56s53 87.666 53 150.999v123
c-23.333 -35.333 -58.5 -64.333 -105.5 -87s-94.5 -34 -142.5 -34c-55.333 0 -107.833 9.5 -157.5 28.5s-94.667 46.833 -135 83.5s-72.333 84.834 -96 144.501s-35.5 127.167 -35.5 202.5zM358.001 523.997c0 -67.333 19.5 -118.333 58.5 -153s86.5 -52 142.5 -52
s103.5 17.333 142.5 52s58.5 85.667 58.5 153v92c0 67.333 -19.5 118.333 -58.5 153s-86.5 52 -142.5 52s-103.5 -17.333 -142.5 -52s-58.5 -85.667 -58.5 -153v-92z" />
    <glyph glyph-name="h" unicode="h" horiz-adv-x="1173" 
d="M123 0v1434h270v-469c23.333 35.333 58.5 64.166 105.5 86.499s94.5 33.5 142.5 33.5c44 0 86.333 -5.83301 127 -17.5s79 -29.834 115 -54.501s67.5 -54.667 94.5 -90s48.333 -78.333 64 -129s23.5 -106.334 23.5 -167.001v-627h-270v616
c0 67.333 -19.5 118.333 -58.5 153s-86.5 52 -142.5 52s-103.5 -17.333 -142.5 -52s-58.5 -85.667 -58.5 -153v-616h-270z" />
    <glyph glyph-name="i" unicode="i" horiz-adv-x="516" 
d="M123 0v1057h270v-1057h-270zM123 1194v240h270v-240h-270z" />
    <glyph glyph-name="j" unicode="j" horiz-adv-x="516" 
d="M-8 -133h52.999c30.667 0 51.334 7 62.001 21s16 35 16 63v1106h270v-1163c0 -180.667 -90 -271 -270 -271h-131v244zM122.999 1194v240h270v-240h-270z" />
    <glyph glyph-name="k" unicode="k" horiz-adv-x="1103" 
d="M123 0v1434h270v-746l338 369h328l-383 -416l438 -641h-317l-303 442l-101 -110v-332h-270z" />
    <glyph glyph-name="l" unicode="l" horiz-adv-x="575" 
d="M119 270l-0.000976562 1164h270v-1106c0 -28 5.33301 -49 16 -63s31.334 -21 62.001 -21h53v-244h-131c-180 0 -270 90 -270 270z" />
    <glyph glyph-name="m" unicode="m" horiz-adv-x="1820" 
d="M123 0v1057h270v-88c25.333 35.333 60 63.5 104 84.5s89.333 31.5 136 31.5c120 0 215 -46.333 285 -139c76.667 92.667 186.334 139 329.001 139c91.333 0 171.333 -16.333 240 -49s123.334 -84 164.001 -154s61 -155 61 -255v-627h-270v616
c0 66 -19.333 116.667 -58 152s-84.334 53 -137.001 53s-98.167 -17.667 -136.5 -53s-57.5 -86 -57.5 -152v-616h-271v616c0 66 -19.167 116.667 -57.5 152s-83.833 53 -136.5 53s-98.334 -17.667 -137.001 -53s-58 -86 -58 -152v-616h-270z" />
    <glyph glyph-name="n" unicode="n" horiz-adv-x="1173" 
d="M123 0v1057h270v-92c23.333 35.333 58.5 64.166 105.5 86.499s94.5 33.5 142.5 33.5c44 0 86.333 -5.83301 127 -17.5s79 -29.834 115 -54.501s67.5 -54.667 94.5 -90s48.333 -78.333 64 -129s23.5 -106.334 23.5 -167.001v-627h-270v616
c0 67.333 -19.5 118.333 -58.5 153s-86.5 52 -142.5 52s-103.5 -17.333 -142.5 -52s-58.5 -85.667 -58.5 -153v-616h-270z" />
    <glyph glyph-name="o" unicode="o" horiz-adv-x="1122" 
d="M90 465v135c0 148.667 41.167 266.667 123.5 354s198.166 131 347.499 131s265.166 -43.667 347.499 -131s123.5 -205.333 123.5 -354v-135c0 -148.667 -41.167 -266.667 -123.5 -354s-198.166 -131 -347.499 -131s-265.166 43.667 -347.499 131
s-123.5 205.333 -123.5 354zM360 430c0 -63.333 17.667 -113.666 53 -150.999s84.666 -56 147.999 -56s112.666 18.667 147.999 56s53 87.666 53 150.999v205c0 63.333 -17.667 113.666 -53 150.999s-84.666 56 -147.999 56s-112.666 -18.667 -147.999 -56
s-53 -87.666 -53 -150.999v-205z" />
    <glyph glyph-name="p" unicode="p" horiz-adv-x="1155" 
d="M123 -377v1434.01h270v-92c23.333 35.333 58.5 64.166 105.5 86.499s94.5 33.5 142.5 33.5c44 0 86.333 -5.83301 127 -17.5s79 -29.834 115 -54.501s67.5 -54.667 94.5 -90s48.333 -78.333 64 -129s23.5 -106.334 23.5 -167.001v-189
c0 -60.667 -7.83301 -116.334 -23.5 -167.001s-37 -93.667 -64 -129s-58.5 -65.333 -94.5 -90s-74.333 -42.834 -115 -54.501s-83 -17.5 -127 -17.5c-48 0 -95.5 11.167 -142.5 33.5s-82.167 51.166 -105.5 86.499v-477h-270zM393 449.006
c0 -67.333 19.5 -118.333 58.5 -153s86.5 -52 142.5 -52s103.5 17.333 142.5 52s58.5 85.667 58.5 153v167c0 67.333 -19.5 118.333 -58.5 153s-86.5 52 -142.5 52s-103.5 -17.333 -142.5 -52s-58.5 -85.667 -58.5 -153v-167z" />
    <glyph glyph-name="q" unicode="q" horiz-adv-x="1155" 
d="M90 438v188.994c0 60.667 7.83301 116.334 23.5 167.001s37 93.667 64 129s58.5 65.333 94.5 90s74.333 42.834 115 54.501s83 17.5 127 17.5c48 0 95.5 -11.167 142.5 -33.5s82.167 -51.166 105.5 -86.499v92h270v-1434h-270v477
c-23.333 -35.333 -58.5 -64.166 -105.5 -86.499s-94.5 -33.5 -142.5 -33.5c-44 0 -86.333 5.83301 -127 17.5s-79 29.834 -115 54.501s-67.5 54.667 -94.5 90s-48.333 78.333 -64 129s-23.5 106.334 -23.5 167.001zM360 448.994c0 -67.333 19.5 -118.333 58.5 -153
s86.5 -52 142.5 -52s103.5 17.333 142.5 52s58.5 85.667 58.5 153v167c0 67.333 -19.5 118.333 -58.5 153s-86.5 52 -142.5 52s-103.5 -17.333 -142.5 -52s-58.5 -85.667 -58.5 -153v-167z" />
    <glyph glyph-name="r" unicode="r" horiz-adv-x="745" 
d="M123 0v1057h270v-115c16.667 37.333 47 68.833 91 94.5s95.667 38.5 155 38.5h82v-264h-127c-56 0 -103.5 -17.333 -142.5 -52s-58.5 -85.667 -58.5 -153v-606h-270z" />
    <glyph glyph-name="s" unicode="s" horiz-adv-x="976" 
d="M49 342l270.003 -0.00390625c4 -26 16.333 -48.333 37 -67s44.834 -32 72.501 -40s56.834 -12 87.501 -12c88.667 0 133 27.333 133 82c0 40.667 -31.333 68 -94 82l-221 49c-31.333 7.33301 -61.333 18.5 -90 33.5s-56.167 35 -82.5 60s-47.5 57.333 -63.5 97
s-24 84.167 -24 133.5c0 66.667 18.667 125 56 175s86.166 87.5 146.499 112.5s127.166 37.5 200.499 37.5c55.333 0 106.333 -6.66699 153 -20s88.5 -33.5 125.5 -60.5s67 -62.667 90 -107s36.833 -95.833 41.5 -154.5h-277c-6.66699 32.667 -22.834 57.334 -48.501 74.001
s-56.5 25 -92.5 25c-38.667 0 -68.834 -7.16699 -90.501 -21.5s-33.167 -33.833 -34.5 -58.5c0 -40 27.333 -66 82 -78l238 -53c32 -7.33301 61.833 -18.166 89.5 -32.499s54.667 -33.666 81 -57.999s47.166 -56.666 62.499 -96.999s23 -86.5 23 -138.5
c0 -57.333 -11 -107.333 -33 -150s-52.333 -76.5 -91 -101.5s-82 -43.5 -130 -55.5s-100.667 -18 -158 -18c-56.667 0 -111.167 7.33301 -163.5 22s-100.333 36.167 -144 64.5s-79.167 66.333 -106.5 114s-42.333 101.5 -45 161.5z" />
    <glyph glyph-name="t" unicode="t" horiz-adv-x="753" 
d="M23 813l-0.000976562 244h149v239h270v-239h260v-244h-260v-485c0 -28 5.33301 -49 16 -63s31.334 -21 62.001 -21h182v-244h-260c-180 0 -270 90 -270 270v543h-149z" />
    <glyph glyph-name="u" unicode="u" horiz-adv-x="1161" 
d="M109 438l0.000976562 618.999h270v-608c0 -66 19 -116.667 57 -152s83.667 -53 137 -53s99.166 17.667 137.499 53s57.5 86 57.5 152v608h270v-1057h-270v115c-24.667 -40 -58.5 -72.5 -101.5 -97.5s-94.5 -37.5 -154.5 -37.5c-50.667 0 -99.5 9.33301 -146.5 28
s-89.833 45.834 -128.5 81.501s-69.667 83.667 -93 144s-35 128.5 -35 204.5z" />
    <glyph glyph-name="v" unicode="v" horiz-adv-x="1003" 
d="M-18 1057h284l236 -674l235 674h285l-381 -1057h-279z" />
    <glyph glyph-name="w" unicode="w" horiz-adv-x="1441" 
d="M-4 1057h280l158 -670l154 670h266l154 -670l157 670h281l-279 -1057h-274l-172 752l-172 -752h-275z" />
    <glyph glyph-name="x" unicode="x" horiz-adv-x="1036" 
d="M0 0l358 543l-342 514h308l194 -299l195 299h307l-342 -514l358 -543h-309l-209 324l-209 -324h-309z" />
    <glyph glyph-name="y" unicode="y" horiz-adv-x="1003" 
d="M-18 1057h284.001l236 -674l235 674h285l-416 -1157c-4 -10.667 -10.5 -29.667 -19.5 -57s-15.333 -45.666 -19 -54.999s-10.167 -24.333 -19.5 -45s-17.333 -34.834 -24 -42.501s-16.334 -18 -29.001 -31s-25.667 -21.833 -39 -26.5s-29.5 -9.16699 -48.5 -13.5
s-40.167 -6.5 -63.5 -6.5h-201v244h113c37.333 0 61.333 15.667 72 47l30 86z" />
    <glyph glyph-name="z" unicode="z" horiz-adv-x="905" 
d="M49 0v244l455 569h-441v244h781v-244l-455 -569h469v-244h-809z" />
    <glyph glyph-name="braceleft" unicode="{" horiz-adv-x="681" 
d="M80 416v250h74c30.667 0 51.167 7 61.5 21s15.5 35 15.5 63v413c0 180.667 90.333 271 271 271h131v-250h-74c-30.667 0 -51.334 -7 -62.001 -21s-16 -35 -16 -63v-414c0 -65.333 -16.333 -113.666 -49 -144.999c32.667 -32.667 49 -81.334 49 -146.001v-413
c0 -28 5.33301 -49 16 -63s31.334 -21 62.001 -21h74v-250h-131c-180.667 0 -271 90 -271 270v414c0 28 -5.16699 49 -15.5 63s-30.833 21 -61.5 21h-74z" />
    <glyph glyph-name="bar" unicode="|" horiz-adv-x="516" 
d="M133 -205v1639h250v-1639h-250z" />
    <glyph glyph-name="braceright" unicode="}" horiz-adv-x="681" 
d="M49 -102h74c30.667 0 51.334 7 62.001 21s16 35 16 63v413c0 64.667 16.333 113.334 49 146.001c-32.667 31.333 -49 79.666 -49 144.999v414c0 28 -5.33301 49 -16 63s-31.334 21 -62.001 21h-74v250h131c180.667 0 271 -90.333 271 -271v-413
c0 -28 5.16699 -49 15.5 -63s30.833 -21 61.5 -21h74v-250h-74c-30.667 0 -51.167 -7 -61.5 -21s-15.5 -35 -15.5 -63v-414c0 -180 -90.333 -270 -271 -270h-131v250z" />
    <glyph glyph-name="asciitilde" unicode="~" horiz-adv-x="1126" 
d="M92 567c100 110.667 208 166 324 166c36 0 71.333 -7.83301 106 -23.5s66.667 -31.334 96 -47.001s56 -23.5 80 -23.5c29.333 0 57.5 7.16699 84.5 21.5s58.5 38.5 94.5 72.5l157 -174c-100 -110.667 -207.667 -166 -323 -166c-36 0 -71.333 7.83301 -106 23.5
s-66.834 31.334 -96.501 47.001s-56.5 23.5 -80.5 23.5c-29.333 0 -57.166 -7 -83.499 -21s-57.833 -38.333 -94.5 -73z" />
    <glyph glyph-name="uni00A0" unicode="&#xa0;" horiz-adv-x="430" 
 />
    <glyph glyph-name="exclamdown" unicode="&#xa1;" horiz-adv-x="552" 
d="M113 729v328h327v-328h-327zM141 -377v1004h271v-1004h-271z" />
    <glyph glyph-name="cent" unicode="&#xa2;" horiz-adv-x="1126" 
d="M104 465v134.999c0 140 37 253.333 111 340s178.333 134.334 313 143.001v187h88v-187c123.333 -6.66699 221.5 -45.5 294.5 -116.5s116.833 -166.5 131.5 -286.5h-270c-7.33301 44 -24.333 79.833 -51 107.5s-61.667 44.5 -105 50.5v-613c44 6.66699 79.5 24 106.5 52
s43.5 64 49.5 108h270c-14.667 -120 -58.5 -215.5 -131.5 -286.5s-171.167 -109.833 -294.5 -116.5v-187h-88v187c-135.333 8.66699 -239.833 56 -313.5 142s-110.5 199.667 -110.5 341zM375 429.999c0 -55.333 13.167 -100.999 39.5 -136.999s64.166 -58 113.499 -66v611
c-49.333 -8.66699 -87.166 -30.834 -113.499 -66.501s-39.5 -81.167 -39.5 -136.5v-205z" />
    <glyph glyph-name="sterling" unicode="&#xa3;" horiz-adv-x="1257" 
d="M102 0l-0.000976562 243.999h62c26.667 0 44.834 7.33301 54.501 22s14.5 35.334 14.5 62.001v309h-131v164h131v168c0 148.667 41.333 266.667 124 354s198.667 131 348 131c146 0 260.167 -42.167 342.5 -126.5s125.166 -198.5 128.499 -342.5h-271v19
c0 63.333 -17.5 113.5 -52.5 150.5s-84.167 55.5 -147.5 55.5s-112.666 -18.5 -147.999 -55.5s-53 -87.167 -53 -150.5v-203h401v-164h-401v-336c0 -30 -4 -49 -12 -57h684v-244h-1074z" />
    <glyph glyph-name="currency" unicode="&#xa4;" horiz-adv-x="1441" 
d="M102 190l177.001 177c-72.667 95.333 -109 205 -109 329c0 123.333 36.333 232.666 109 327.999l-177 178l115 115l176 -178c96.667 73.333 206.667 110 330 110c121.333 0 230.666 -36 327.999 -108l174 176l114 -115l-174 -176c74 -97.333 111 -207.333 111 -330
c0 -123.333 -37 -233.666 -111 -330.999l174 -175l-114 -114l-174 174c-96.667 -71.333 -206 -107 -328 -107s-232 36.333 -330 109l-176 -176zM414.001 696c0 -85.333 30.333 -158.166 91 -218.499s133.334 -90.5 218.001 -90.5s157.334 30.167 218.001 90.5
s91 133.166 91 218.499s-30.333 158.333 -91 219s-133.334 91 -218.001 91s-157.334 -30.333 -218.001 -91s-91 -133.667 -91 -219z" />
    <glyph glyph-name="yen" unicode="&#xa5;" horiz-adv-x="1327" 
d="M18 1434h304l342 -615l342 615h303l-418 -748h242v-164h-334v-96h334v-164h-334v-262h-271v262h-335v164h335v96h-335v164h243z" />
    <glyph glyph-name="brokenbar" unicode="&#xa6;" horiz-adv-x="516" 
d="M133 -205v694h250v-694h-250zM133 739v695h250v-695h-250z" />
    <glyph glyph-name="section" unicode="&#xa7;" horiz-adv-x="1077" 
d="M96 543c0 130 49.999 229.666 149.999 298.999c-64 66 -96 152.667 -96 260c0 102.667 35 187 105 253s165.333 99 286 99c106.667 0 194 -29 262 -87s111.667 -143.667 131 -257h-256c-8.66699 32 -25.667 56.667 -51 74s-54 26 -86 26
c-40.667 0 -74.5 -9.66699 -101.5 -29s-40.5 -47.666 -40.5 -84.999c0 -28 8.33301 -52.833 25 -74.5s37.667 -37.167 63 -46.5l207 -74c30.667 -11.333 58.167 -23.166 82.5 -35.499s49.833 -29.333 76.5 -51s48.834 -45.667 66.501 -72s32.334 -59.5 44.001 -99.5
s17.5 -84.333 17.5 -133c0 -129.333 -50.667 -229 -152 -299c66 -66 99 -152.667 99 -260c0 -112 -34.667 -198 -104 -258s-163.666 -90 -282.999 -90c-114.667 0 -209.834 32.833 -285.501 98.5s-118.5 153.5 -128.5 263.5h260c4 -34.667 20.667 -63.167 50 -85.5
s64 -33.5 104 -33.5c42 0 75.5 9 100.5 27s37.833 45.333 38.5 82c0 30.667 -10 56.667 -30 78s-51.667 40.333 -95 57l-174 62c-30.667 11.333 -58 23.166 -82 35.499s-49.333 29.333 -76 51s-48.834 45.667 -66.501 72s-32.167 59.5 -43.5 99.5s-17 84.333 -17 133z
M343.999 538.999c0 -32.667 9.83301 -62.833 29.5 -90.5s46.834 -47.5 81.501 -59.5l96 -35c55.333 6 99.166 23.833 131.499 53.5s49.166 65.167 50.499 106.5c0 32.667 -9.83301 62.834 -29.5 90.501s-46.5 47.5 -80.5 59.5l-99 34
c-55.333 -6 -99.166 -23.833 -131.499 -53.5s-48.5 -64.834 -48.5 -105.501z" />
    <glyph glyph-name="dieresis" unicode="&#xa8;" horiz-adv-x="884" 
d="M106 1182v239h271v-239h-271zM508 1182v239h270v-239h-270z" />
    <glyph glyph-name="copyright" unicode="&#xa9;" horiz-adv-x="1597" 
d="M61 717c0 100 19.5 195.5 58.5 286.5s91.333 169.5 157 235.5s144.167 118.333 235.5 157s187 58 287 58s195.5 -19.333 286.5 -58s169.5 -91 235.5 -157s118.333 -144.5 157 -235.5s58 -186.5 58 -286.5s-19.333 -195.5 -58 -286.5s-91 -169.5 -157 -235.5
s-144.5 -118.333 -235.5 -157s-186.5 -58 -286.5 -58s-195.667 19.333 -287 58s-169.833 91 -235.5 157s-118 144.5 -157 235.5s-58.5 186.5 -58.5 286.5zM283 717c0 -92.667 23 -178.5 69 -257.5s108.667 -141.5 188 -187.5s165.666 -69 258.999 -69s179.333 23 258 69
s140.667 108.5 186 187.5s68 164.833 68 257.5s-22.667 178.5 -68 257.5s-107.333 141.5 -186 187.5s-164.667 69 -258 69s-179.666 -23 -258.999 -69s-142 -108.5 -188 -187.5s-69 -164.833 -69 -257.5zM500 625v175.999c0 84.667 25.667 152.167 77 202.5
s125.333 75.5 222 75.5c96 0 169.667 -24.5 221 -73.5s78 -115.167 80 -198.5h-193c-3.33301 24.667 -14.833 44.834 -34.5 60.501s-44.167 23.5 -73.5 23.5c-30.667 0 -56.5 -8.5 -77.5 -25.5s-31.5 -38.5 -31.5 -64.5v-176c0 -27.333 10.5 -49.666 31.5 -66.999
s46.833 -26 77.5 -26c29.333 0 54 7.66699 74 23s31.333 35.666 34 60.999h193c-2 -83.333 -28.667 -149.5 -80 -198.5s-125 -73.5 -221 -73.5c-96.667 0 -170.667 25.667 -222 77s-77 119.333 -77 204z" />
    <glyph glyph-name="ordfeminine" unicode="&#xaa;" horiz-adv-x="686" 
d="M41 991c0 71.333 25.334 124.667 76.001 160c24 18 55.333 32.333 94 43s73.167 17.5 103.5 20.5s69.5 5.83301 117.5 8.5c-16.667 39.333 -48.667 59 -96 59c-38.667 0 -68 -14.333 -88 -43h-191c16 64 46.5 115.167 91.5 153.5s107.5 57.5 187.5 57.5
c98 0 171 -28 219 -84s72 -128.333 72 -217v-328h-191v74c-33.333 -57.333 -94 -86 -182 -86c-66.667 0 -118.834 16.667 -156.501 50s-56.5 77.333 -56.5 132zM231.001 1016c0 -10.667 5.5 -20.5 16.5 -29.5s30.167 -13.5 57.5 -13.5c36 0 66.833 9.66699 92.5 29
s38.5 43 38.5 71c-100 -6 -160 -13.333 -180 -22c-16.667 -7.33301 -25 -19 -25 -35z" />
    <glyph glyph-name="guillemotleft" unicode="&#xab;" horiz-adv-x="995" 
d="M86 442v234l363 317v-331l-117 -103l117 -102v-332zM530 442v234l363 317v-331l-117 -103l117 -102v-332z" />
    <glyph glyph-name="logicalnot" unicode="&#xac;" 
d="M100 440v246h942v-594h-245v348h-697z" />
    <glyph glyph-name="uni00AD" unicode="&#xad;" horiz-adv-x="757" 
d="M82 440v246h594v-246h-594z" />
    <glyph glyph-name="registered" unicode="&#xae;" horiz-adv-x="1597" 
d="M61 717c0 100 19.5 195.5 58.5 286.5s91.333 169.5 157 235.5s144.167 118.333 235.5 157s187 58 287 58s195.5 -19.333 286.5 -58s169.5 -91 235.5 -157s118.333 -144.5 157 -235.5s58 -186.5 58 -286.5s-19.333 -195.5 -58 -286.5s-91 -169.5 -157 -235.5
s-144.5 -118.333 -235.5 -157s-186.5 -58 -286.5 -58s-195.667 19.333 -287 58s-169.833 91 -235.5 157s-118 144.5 -157 235.5s-58.5 186.5 -58.5 286.5zM283 717c0 -92.667 23 -178.5 69 -257.5s108.667 -141.5 188 -187.5s165.666 -69 258.999 -69s179.333 23 258 69
s140.667 108.5 186 187.5s68 164.833 68 257.5s-22.667 178.5 -68 257.5s-107.333 141.5 -186 187.5s-164.667 69 -258 69s-179.666 -23 -258.999 -69s-142 -108.5 -188 -187.5s-69 -164.833 -69 -257.5zM514 354l191 0.000976562v267h43l155 -267h219l-166 281
c96 29.333 144 99.666 144 210.999c0 71.333 -21 126.333 -63 165s-103 58 -183 58h-340v-715zM705 807.001v74h153c34 0 51 -12.333 51 -37s-17 -37 -51 -37h-153z" />
    <glyph glyph-name="macron" unicode="&#xaf;" horiz-adv-x="899" 
d="M100 1196v213h699v-213h-699z" />
    <glyph glyph-name="degree" unicode="&#xb0;" horiz-adv-x="786" 
d="M74 1124c0 88 31.167 163.333 93.5 226s137.5 94 225.5 94s163.333 -31.333 226 -94s94 -138 94 -226s-31.333 -163.167 -94 -225.5s-138 -93.5 -226 -93.5s-163.167 31.167 -225.5 93.5s-93.5 137.5 -93.5 225.5zM272 1124c0 -34 11.667 -63 35 -87s52 -36 86 -36
s62.667 12 86 36s35 53 35 87s-11.667 63 -35 87s-52 36 -86 36s-62.667 -12 -86 -36s-35 -53 -35 -87z" />
    <glyph glyph-name="plusminus" unicode="&#xb1;" 
d="M100 0v246h942v-246h-942zM100 573v246h349v238h245v-238h348v-246h-348v-237h-245v237h-349z" />
    <glyph glyph-name="uni00B2" unicode="&#xb2;" horiz-adv-x="659" 
d="M37 821l0.000976562 170.001l330 295c26 23.333 42.667 42.166 50 56.499s11 30.5 11 48.5c0 69.333 -33.333 104 -100 104c-34 0 -59.333 -9.33301 -76 -28s-25 -42.667 -25 -72v-9h-190c1.33301 38 8 73.333 20 106s29.333 62.167 52 88.5s52.667 47 90 62
s80.333 22.5 129 22.5c93.333 0 164.666 -25.5 213.999 -76.5s74 -115.5 74 -193.5c0 -54.667 -9.5 -101 -28.5 -139s-51.833 -76.333 -98.5 -115l-178 -150h305v-170h-579z" />
    <glyph glyph-name="uni00B3" unicode="&#xb3;" horiz-adv-x="665" 
d="M35 1059l187.997 -0.000976562c4.66699 -22 16.167 -40.833 34.5 -56.5s42.5 -23.5 72.5 -23.5c28.667 0 51.5 7.33301 68.5 22s25.5 34.667 25.5 60c0 29.333 -10.167 51.333 -30.5 66s-47.166 22 -80.499 22h-73v168h73c74 0 111 24 111 72
c0 70.667 -32.667 106 -98 106c-58 0 -92.333 -26.667 -103 -80h-188c10 73.333 38.833 133.333 86.5 180s115.834 70 204.501 70c47.333 0 89.833 -7.66699 127.5 -23s67.834 -35.666 90.501 -60.999s40 -53.5 52 -84.5s18 -63.5 18 -97.5
c0 -28 -6.16699 -57.5 -18.5 -88.5s-32.5 -57.5 -60.5 -79.5c24 -16.667 43.167 -44 57.5 -82s21.5 -72 21.5 -102c0 -72 -24.167 -129.667 -72.5 -173s-119.5 -65 -213.5 -65c-88 0 -156.333 23.5 -205 70.5s-78 106.833 -88 179.5z" />
    <glyph glyph-name="acute" unicode="&#xb4;" horiz-adv-x="657" 
d="M104 1169l123 265h353l-242 -265h-234z" />
    <glyph glyph-name="paragraph" unicode="&#xb6;" horiz-adv-x="1333" 
d="M37 1024c0 112 39.833 208.333 119.5 289s175.5 121 287.5 121h746v-1612h-250v1362h-225v-1362h-250v792h-21c-112 0 -207.833 40.167 -287.5 120.5s-119.5 176.833 -119.5 289.5z" />
    <glyph glyph-name="periodcentered" unicode="&#xb7;" horiz-adv-x="634" 
d="M154 420v328h327v-328h-327z" />
    <glyph glyph-name="cedilla" unicode="&#xb8;" horiz-adv-x="552" 
d="M82 -324l117 324h227l-78 -324h-266z" />
    <glyph glyph-name="uni00B9" unicode="&#xb9;" horiz-adv-x="464" 
d="M35 1264v249l160 140h190v-832h-190v580z" />
    <glyph glyph-name="ordmasculine" unicode="&#xba;" horiz-adv-x="684" 
d="M51 1112v37c0 88.667 24 161 72 217s121 84 219 84s170.667 -28 218 -84s71 -128.333 71 -217v-37c0 -89.333 -23.667 -162.166 -71 -218.499s-120 -84.5 -218 -84.5s-171 28.167 -219 84.5s-72 129.166 -72 218.499zM242 1081c0 -68 33.333 -102 100 -102
c65.333 0 98 34 98 102v97c0 31.333 -7.83301 56.5 -23.5 75.5s-40.5 28.5 -74.5 28.5c-34.667 0 -60 -9.5 -76 -28.5s-24 -44.167 -24 -75.5v-97z" />
    <glyph glyph-name="guillemotright" unicode="&#xbb;" horiz-adv-x="995" 
d="M94 125v332l117 102l-117 103v331l363 -317v-234zM539 125v332l116 102l-116 103v331l362 -317v-234z" />
    <glyph glyph-name="onequarter" unicode="&#xbc;" horiz-adv-x="1812" 
d="M223 1044v250l160 140h190v-832h-190v580zM305 0l985 1434h217l-985 -1434h-217zM1102 172v168l346 491h190v-491h88v-168h-88v-172h-190v172h-346zM1327 340h121v176z" />
    <glyph glyph-name="onehalf" unicode="&#xbd;" horiz-adv-x="1812" 
d="M223 1044v250l160 140h190v-832h-190v580zM305 0l985 1434h217l-985 -1434h-217zM1124 0l-0.000976562 170.001l330 295c26.667 23.333 43.667 42.166 51 56.499s11 30.166 11 47.499c0 70 -33.667 105 -101 105c-34 0 -59.167 -9.33301 -75.5 -28s-24.5 -43 -24.5 -73
v-8h-191c4.66699 82.667 30.834 149.834 78.501 201.501s118.5 77.5 212.5 77.5c93.333 0 164.833 -25.667 214.5 -77s74.5 -116 74.5 -194c0 -54.667 -9.5 -101 -28.5 -139s-51.833 -76.333 -98.5 -115l-178 -149h305v-170h-580z" />
    <glyph glyph-name="threequarters" unicode="&#xbe;" horiz-adv-x="1812" 
d="M109 840h188c4.66699 -22.667 16.167 -41.667 34.5 -57s42.166 -23 71.499 -23c28.667 0 51.667 7.33301 69 22s26 34.667 26 60c0 29.333 -10.167 51.333 -30.5 66s-47.166 22 -80.499 22h-74v168h74c74 0 111 23.667 111 71c0 71.333 -33 107 -99 107
c-57.333 0 -91.333 -26.667 -102 -80h-188c10 73.333 38.667 133.333 86 180s115.333 70 204 70c62.667 0 116.5 -13.333 161.5 -40s77.5 -59.5 97.5 -98.5s30 -81.5 30 -127.5c0 -28 -6.33301 -57.333 -19 -88s-33 -57.334 -61 -80.001c24 -16.667 43.333 -44.167 58 -82.5
s22 -72.5 22 -102.5c0 -71.333 -24.333 -128.666 -73 -171.999s-120 -65 -214 -65c-88 0 -156.167 23.5 -204.5 70.5s-77.5 106.833 -87.5 179.5zM305 0l985 1434h217l-985 -1434h-217zM1102 172v168l346 491h190v-491h88v-168h-88v-172h-190v172h-346zM1327 340h121v176z
" />
    <glyph glyph-name="questiondown" unicode="&#xbf;" horiz-adv-x="1042" 
d="M68 70c0 122.667 52.332 232.333 156.999 329l107 99c28 26 46.833 47.167 56.5 63.5s14.5 35.166 14.5 56.499v9h271v-45c0 -54 -8.66699 -97 -26 -129s-51.666 -71.667 -102.999 -119l-107 -98c-15.333 -14 -27 -25 -35 -33s-18 -20.167 -30 -36.5
s-20.833 -33.833 -26.5 -52.5s-8.5 -39 -8.5 -61c0 -63.333 17.667 -113.666 53 -150.999s84.666 -56 147.999 -56c59.333 0 106.5 16.833 141.5 50.5s54.5 79.167 58.5 136.5h269c-10 -133.333 -55.667 -238.333 -137 -315s-192 -115 -332 -115
c-147.333 0 -262.666 42.167 -345.999 126.5s-125 197.833 -125 340.5zM374.999 728.999v328h327v-328h-327z" />
    <glyph glyph-name="Agrave" unicode="&#xc0;" horiz-adv-x="1282" 
d="M-2 0l512 1434h262l512 -1434h-287l-102 289h-508l-102 -289h-287zM301 1749h356l154 -223h-248zM481 549h320l-160 465z" />
    <glyph glyph-name="Aacute" unicode="&#xc1;" horiz-adv-x="1282" 
d="M-2 0l512 1434h262l512 -1434h-287l-102 289h-508l-102 -289h-287zM471 1526l154 223h356l-262 -223h-248zM481 549h320l-160 465z" />
    <glyph glyph-name="Acircumflex" unicode="&#xc2;" horiz-adv-x="1282" 
d="M-2 0l512 1434h262l512 -1434h-287l-102 289h-508l-102 -289h-287zM260 1526l268 223h226l268 -223h-291l-90 71l-90 -71h-291zM481 549h320l-160 465z" />
    <glyph glyph-name="Atilde" unicode="&#xc3;" horiz-adv-x="1282" 
d="M-2 0l512 1434h262l512 -1434h-287l-102 289h-508l-102 -289h-287zM272 1507c14.667 78 42.667 142 84 192s94.666 75 159.999 75c45.333 0 87 -9.66699 125 -29l55 -27c12.667 -5.33301 25 -8 37 -8c30 0 52 19.667 66 59h213c-14.667 -78 -42.667 -141.833 -84 -191.5
s-94.666 -74.5 -159.999 -74.5c-45.333 0 -87 9.66699 -125 29l-55 27c-12.667 5.33301 -25 8 -37 8c-29.333 0 -51.333 -20 -66 -60h-213zM481 549h320l-160 465z" />
    <glyph glyph-name="Adieresis" unicode="&#xc4;" horiz-adv-x="1282" 
d="M-2 0l512 1434h262l512 -1434h-287l-102 289h-508l-102 -289h-287zM303 1518v239h275v-239h-275zM481 549h320l-160 465zM705 1518v239h274v-239h-274z" />
    <glyph glyph-name="Aring" unicode="&#xc5;" horiz-adv-x="1282" 
d="M-2 0l512 1434h262l512 -1434h-287l-102 289h-508l-102 -289h-287zM481 549h320l-160 465zM489 1636c0 42 14.833 78.167 44.5 108.5s65.5 45.5 107.5 45.5s78.167 -15.167 108.5 -45.5s45.5 -66.5 45.5 -108.5s-15.167 -77.667 -45.5 -107s-66.5 -44 -108.5 -44
s-77.833 14.667 -107.5 44s-44.5 65 -44.5 107zM604 1636c0 -10 3.66699 -18.667 11 -26s16 -11 26 -11s18.667 3.66699 26 11s11 16 11 26s-3.66699 18.667 -11 26s-16 11 -26 11s-18.667 -3.66699 -26 -11s-11 -16 -11 -26z" />
    <glyph glyph-name="AE" unicode="&#xc6;" horiz-adv-x="1798" 
d="M-16 0l659 1434h1055v-273h-598v-301h598v-272h-598v-316h598v-272h-873v324h-391l-147 -324h-303zM557 586h268v585z" />
    <glyph glyph-name="Ccedilla" unicode="&#xc7;" horiz-adv-x="1241" 
d="M90 510l-0.00195312 414.002c0 160.667 47.833 289.167 143.5 385.5s228.167 144.5 397.5 144.5c164.667 0 294.334 -45.167 389.001 -135.5s145 -211.833 151 -364.5h-276c-6.66699 70.667 -34.5 126.334 -83.5 167.001s-109.167 61 -180.5 61
c-77.333 0 -141 -22.833 -191 -68.5s-75 -108.834 -75 -189.501v-414c0 -80.667 25 -143.834 75 -189.501s113.667 -68.5 191 -68.5c72 0 132.333 20 181 60s76.334 95.667 83.001 167h276c-6 -134.667 -46.333 -245.334 -121 -332.001s-177.667 -139.667 -309 -159
l-73 -312h-271l103 316c-130 23.333 -230.833 81 -302.5 173s-107.5 207 -107.5 345z" />
    <glyph glyph-name="Egrave" unicode="&#xc8;" horiz-adv-x="1105" 
d="M133 0v1434h873v-273h-598v-301h598v-272h-598v-316h598v-272h-873zM229 1749h357l153 -223h-247z" />
    <glyph glyph-name="Eacute" unicode="&#xc9;" horiz-adv-x="1105" 
d="M133 0v1434h873v-273h-598v-301h598v-272h-598v-316h598v-272h-873zM399 1526l154 223h356l-262 -223h-248z" />
    <glyph glyph-name="Ecircumflex" unicode="&#xca;" horiz-adv-x="1105" 
d="M133 0v1434h873v-273h-598v-301h598v-272h-598v-316h598v-272h-873zM188 1526l269 223h225l268 -223h-291l-90 71l-90 -71h-291z" />
    <glyph glyph-name="Edieresis" unicode="&#xcb;" horiz-adv-x="1105" 
d="M133 0v1434h873v-273h-598v-301h598v-272h-598v-316h598v-272h-873zM231 1518v239h275v-239h-275zM633 1518v239h274v-239h-274z" />
    <glyph glyph-name="Igrave" unicode="&#xcc;" horiz-adv-x="538" 
d="M-72 1749h357l153 -223h-248zM131 0v1434h275v-1434h-275z" />
    <glyph glyph-name="Iacute" unicode="&#xcd;" horiz-adv-x="540" 
d="M100 1526l154 223h356l-262 -223h-248zM133 0v1434h275v-1434h-275z" />
    <glyph glyph-name="Icircumflex" unicode="&#xce;" horiz-adv-x="540" 
d="M-111 1526l269 223h225l268 -223h-291l-90 71l-90 -71h-291zM133 0v1434h275v-1434h-275z" />
    <glyph glyph-name="Idieresis" unicode="&#xcf;" horiz-adv-x="540" 
d="M-68 1518v239h275v-239h-275zM133 0v1434h275v-1434h-275zM334 1518v239h274v-239h-274z" />
    <glyph glyph-name="Eth" unicode="&#xd0;" horiz-adv-x="1327" 
d="M12 621v183.999h144v629h540c169.333 0 301.833 -48.167 397.5 -144.5s143.5 -225.166 143.5 -386.499v-373c0 -160.667 -47.833 -289.167 -143.5 -385.5s-228.167 -144.5 -397.5 -144.5h-540v621h-144zM430 271.999l266 -0.00195312c78 0 142 22.833 192 68.5
s75 108.834 75 189.501v373c0 80.667 -25 143.834 -75 189.501s-114 68.5 -192 68.5h-266v-356h266v-184h-266v-349z" />
    <glyph glyph-name="Ntilde" unicode="&#xd1;" horiz-adv-x="1347" 
d="M133 0v1434h275l532 -924v924h274v-1434h-274l-532 924v-924h-275zM305 1507c14.667 78 42.668 142 84.001 192s94.666 75 159.999 75c45.333 0 87 -9.66699 125 -29l55 -27c12.667 -5.33301 25 -8 37 -8c29.333 0 51 19.667 65 59h213
c-14.667 -78 -42.5 -141.833 -83.5 -191.5s-94.167 -74.5 -159.5 -74.5c-45.333 0 -87 9.66699 -125 29l-55 27c-12.667 5.33301 -25 8 -37 8c-29.333 0 -51.333 -20 -66 -60h-213z" />
    <glyph glyph-name="Ograve" unicode="&#xd2;" horiz-adv-x="1261" 
d="M90 510v414c0 160.667 47.833 289.167 143.5 385.5s228.167 144.5 397.5 144.5s301.666 -48 396.999 -144s143 -224.667 143 -386v-414c0 -161.333 -47.667 -290 -143 -386s-227.666 -144 -396.999 -144s-301.833 48.167 -397.5 144.5s-143.5 224.833 -143.5 385.5z
M291 1749h356l154 -223h-248zM365 510c0 -80.667 25 -143.834 75 -189.501s113.667 -68.5 191 -68.5s141 22.833 191 68.5s75 108.834 75 189.501v414c0 80.667 -25 143.834 -75 189.501s-113.667 68.5 -191 68.5s-141 -22.833 -191 -68.5s-75 -108.834 -75 -189.501v-414z
" />
    <glyph glyph-name="Oacute" unicode="&#xd3;" horiz-adv-x="1261" 
d="M90 510v414c0 160.667 47.833 289.167 143.5 385.5s228.167 144.5 397.5 144.5s301.666 -48 396.999 -144s143 -224.667 143 -386v-414c0 -161.333 -47.667 -290 -143 -386s-227.666 -144 -396.999 -144s-301.833 48.167 -397.5 144.5s-143.5 224.833 -143.5 385.5z
M365 510c0 -80.667 25 -143.834 75 -189.501s113.667 -68.5 191 -68.5s141 22.833 191 68.5s75 108.834 75 189.501v414c0 80.667 -25 143.834 -75 189.501s-113.667 68.5 -191 68.5s-141 -22.833 -191 -68.5s-75 -108.834 -75 -189.501v-414zM461 1526l153 223h357
l-262 -223h-248z" />
    <glyph glyph-name="Ocircumflex" unicode="&#xd4;" horiz-adv-x="1261" 
d="M90 510v414c0 160.667 47.833 289.167 143.5 385.5s228.167 144.5 397.5 144.5s301.666 -48 396.999 -144s143 -224.667 143 -386v-414c0 -161.333 -47.667 -290 -143 -386s-227.666 -144 -396.999 -144s-301.833 48.167 -397.5 144.5s-143.5 224.833 -143.5 385.5z
M250 1526l268 223h225l269 -223h-291l-90 71l-90 -71h-291zM365 510c0 -80.667 25 -143.834 75 -189.501s113.667 -68.5 191 -68.5s141 22.833 191 68.5s75 108.834 75 189.501v414c0 80.667 -25 143.834 -75 189.501s-113.667 68.5 -191 68.5s-141 -22.833 -191 -68.5
s-75 -108.834 -75 -189.501v-414z" />
    <glyph glyph-name="Otilde" unicode="&#xd5;" horiz-adv-x="1261" 
d="M90 510v414c0 160.667 47.833 289.167 143.5 385.5s228.167 144.5 397.5 144.5s301.666 -48 396.999 -144s143 -224.667 143 -386v-414c0 -161.333 -47.667 -290 -143 -386s-227.666 -144 -396.999 -144s-301.833 48.167 -397.5 144.5s-143.5 224.833 -143.5 385.5z
M262 1507c14.667 78 42.668 142 84.001 192s94.666 75 159.999 75c45.333 0 87 -9.66699 125 -29l55 -27c12.667 -5.33301 25 -8 37 -8c29.333 0 51 19.667 65 59h213c-14.667 -78 -42.5 -141.833 -83.5 -191.5s-94.167 -74.5 -159.5 -74.5c-45.333 0 -87 9.66699 -125 29
l-55 27c-12.667 5.33301 -25 8 -37 8c-29.333 0 -51.333 -20 -66 -60h-213zM365.001 510c0 -80.667 25 -143.834 75 -189.501s113.667 -68.5 191 -68.5s141 22.833 191 68.5s75 108.834 75 189.501v414c0 80.667 -25 143.834 -75 189.501s-113.667 68.5 -191 68.5
s-141 -22.833 -191 -68.5s-75 -108.834 -75 -189.501v-414z" />
    <glyph glyph-name="Odieresis" unicode="&#xd6;" horiz-adv-x="1261" 
d="M90 510v414c0 160.667 47.833 289.167 143.5 385.5s228.167 144.5 397.5 144.5s301.666 -48 396.999 -144s143 -224.667 143 -386v-414c0 -161.333 -47.667 -290 -143 -386s-227.666 -144 -396.999 -144s-301.833 48.167 -397.5 144.5s-143.5 224.833 -143.5 385.5z
M293 1518v239h274v-239h-274zM365 510c0 -80.667 25 -143.834 75 -189.501s113.667 -68.5 191 -68.5s141 22.833 191 68.5s75 108.834 75 189.501v414c0 80.667 -25 143.834 -75 189.501s-113.667 68.5 -191 68.5s-141 -22.833 -191 -68.5s-75 -108.834 -75 -189.501v-414z
M694 1518v239h275v-239h-275z" />
    <glyph glyph-name="multiply" unicode="&#xd7;" 
d="M104 281l293 292l-293 295l175 174l292 -294l295 294l174 -174l-295 -295l295 -292l-174 -175l-295 293l-292 -293z" />
    <glyph glyph-name="Oslash" unicode="&#xd8;" horiz-adv-x="1273" 
d="M96 12l99.001 162c-66 88 -99 200 -99 336v414c0 160.667 47.833 289.167 143.5 385.5s228.167 144.5 397.5 144.5c113.333 0 213.666 -24 300.999 -72l86 140l154 -101l-101 -161c67.333 -90 101 -202 101 -336v-414c0 -160.667 -47.833 -289.167 -143.5 -385.5
s-228.167 -144.5 -397.5 -144.5c-118 0 -218.333 23.667 -301 71l-84 -137zM371.001 510c0 -22 0.666016 -37.666 1.99902 -46.999l418 678c-43.333 27.333 -94.666 41 -153.999 41c-77.333 0 -141 -22.833 -191 -68.5s-75 -108.834 -75 -189.501v-414zM483 291.001
c41.333 -26 92.667 -39.001 154 -39.001c77.333 0 141 22.833 191 68.5s75 108.834 75 189.501v414c0 11.333 -1.33301 26.333 -4 45z" />
    <glyph glyph-name="Ugrave" unicode="&#xd9;" horiz-adv-x="1310" 
d="M115 510l-0.000976562 924h274v-924c0 -80.667 25 -143.834 75 -189.501s113.667 -68.5 191 -68.5c78 0 142 22.833 192 68.5s75 108.834 75 189.501v924h274v-924c0 -160.667 -47.833 -289.167 -143.5 -385.5s-228.167 -144.5 -397.5 -144.5s-301.666 48 -396.999 144
s-143 224.667 -143 386zM314.999 1749h357l153 -223h-247z" />
    <glyph glyph-name="Uacute" unicode="&#xda;" horiz-adv-x="1310" 
d="M115 510l-0.000976562 924h274v-924c0 -80.667 25 -143.834 75 -189.501s113.667 -68.5 191 -68.5c78 0 142 22.833 192 68.5s75 108.834 75 189.501v924h274v-924c0 -160.667 -47.833 -289.167 -143.5 -385.5s-228.167 -144.5 -397.5 -144.5s-301.666 48 -396.999 144
s-143 224.667 -143 386zM484.999 1526l154 223h356l-262 -223h-248z" />
    <glyph glyph-name="Ucircumflex" unicode="&#xdb;" horiz-adv-x="1310" 
d="M115 510l-0.000976562 924h274v-924c0 -80.667 25 -143.834 75 -189.501s113.667 -68.5 191 -68.5c78 0 142 22.833 192 68.5s75 108.834 75 189.501v924h274v-924c0 -160.667 -47.833 -289.167 -143.5 -385.5s-228.167 -144.5 -397.5 -144.5s-301.666 48 -396.999 144
s-143 224.667 -143 386zM273.999 1526l269 223h225l268 -223h-291l-90 71l-90 -71h-291z" />
    <glyph glyph-name="Udieresis" unicode="&#xdc;" horiz-adv-x="1310" 
d="M115 510l-0.000976562 924h274v-924c0 -80.667 25 -143.834 75 -189.501s113.667 -68.5 191 -68.5c78 0 142 22.833 192 68.5s75 108.834 75 189.501v924h274v-924c0 -160.667 -47.833 -289.167 -143.5 -385.5s-228.167 -144.5 -397.5 -144.5s-301.666 48 -396.999 144
s-143 224.667 -143 386zM316.999 1518v239h275v-239h-275zM718.999 1518v239h274v-239h-274z" />
    <glyph glyph-name="Yacute" unicode="&#xdd;" horiz-adv-x="1241" 
d="M-25 1434h312l334 -598l333 598h312l-508 -912v-522h-275v522zM451 1526l153 223h357l-263 -223h-247z" />
    <glyph glyph-name="Thorn" unicode="&#xde;" horiz-adv-x="1222" 
d="M133 0l0.00195312 1434h275v-220h311c66 0 126.5 -8.83301 181.5 -26.5s101.667 -41.834 140 -72.501s70.666 -67 96.999 -109s45.666 -87 57.999 -135s18.5 -98.667 18.5 -152c0 -66.667 -10 -129.334 -30 -188.001s-49.667 -111.334 -89 -158.001
s-91.333 -83.667 -156 -111s-138 -41 -220 -41h-311v-221h-275zM408.002 494.003l311 0.000976562c71.333 0 126 22.167 164 66.5s57 97.166 57 158.499c0 60.667 -19 113 -57 157s-92.667 66 -164 66h-311v-448z" />
    <glyph glyph-name="germandbls" unicode="&#xdf;" horiz-adv-x="1132" 
d="M123 0l0.000976562 1044c0 58 8.16699 111.167 24.5 159.5s41 91.5 74 129.5s77 67.667 132 89s118.167 32 189.5 32c67.333 0 128 -10.167 182 -30.5s98 -48.166 132 -83.499s60.167 -75.833 78.5 -121.5s27.5 -94.834 27.5 -147.501
c0 -109.333 -32.333 -198.666 -97 -267.999c68.667 -45.333 119 -101.5 151 -168.5s48 -138.5 48 -214.5c0 -58 -9.33301 -112.667 -28 -164s-46 -98 -82 -140s-83.833 -75.167 -143.5 -99.5s-127.5 -36.5 -203.5 -36.5c-36 0 -74.667 3.33301 -116 10v266
c29.333 -22 68 -33 116 -33c56.667 0 102 19.833 136 59.5s51 92.167 51 157.5c0 64 -21.333 115.833 -64 155.5s-97.334 59.5 -164.001 59.5h-75v224h51c44.667 0 80.667 15.833 108 47.5s41 70.834 41 117.501s-13.667 86 -41 118s-63.333 48 -108 48
c-46 0 -82.5 -13.833 -109.5 -41.5s-40.5 -64.167 -40.5 -109.5v-1059h-270z" />
    <glyph glyph-name="agrave" unicode="&#xe0;" 
d="M84 293c0 78 15.3311 141.332 45.998 189.999s82.334 90.334 155.001 125.001c32 15.333 78.333 28.5 139 39.5s113.834 18.833 159.501 23.5s104.5 9.66699 176.5 15v2c-9.33301 48 -30.833 85.667 -64.5 113s-77.834 41 -132.501 41c-46 0 -85 -10.333 -117 -31
s-55 -49.334 -69 -86.001h-273c22 112.667 72.333 200.834 151 264.501s181.334 95.5 308.001 95.5c149.333 0 265.166 -43.667 347.499 -131s123.5 -205.333 123.5 -354v-600h-270v121c-57.333 -94 -155.666 -141 -294.999 -141c-120.667 0 -215 27.667 -283 83
s-102 132 -102 230zM261.998 1434h352l123 -265h-233zM353.998 323.999c0 -29.333 12.832 -54.5 38.499 -75.5s66.167 -31.5 121.5 -31.5c72 0 131.667 19 179 57s71 89.333 71 154v35c-197.333 -12.667 -314.666 -29 -351.999 -49c-22 -11.333 -37.167 -23.5 -45.5 -36.5
s-12.5 -30.833 -12.5 -53.5z" />
    <glyph glyph-name="aacute" unicode="&#xe1;" 
d="M84 293c0 78 15.3311 141.332 45.998 189.999s82.334 90.334 155.001 125.001c32 15.333 78.333 28.5 139 39.5s113.834 18.833 159.501 23.5s104.5 9.66699 176.5 15v2c-9.33301 48 -30.833 85.667 -64.5 113s-77.834 41 -132.501 41c-46 0 -85 -10.333 -117 -31
s-55 -49.334 -69 -86.001h-273c22 112.667 72.333 200.834 151 264.501s181.334 95.5 308.001 95.5c149.333 0 265.166 -43.667 347.499 -131s123.5 -205.333 123.5 -354v-600h-270v121c-57.333 -94 -155.666 -141 -294.999 -141c-120.667 0 -215 27.667 -283 83
s-102 132 -102 230zM353.998 323.999c0 -29.333 12.832 -54.5 38.499 -75.5s66.167 -31.5 121.5 -31.5c72 0 131.667 19 179 57s71 89.333 71 154v35c-197.333 -12.667 -314.666 -29 -351.999 -49c-22 -11.333 -37.167 -23.5 -45.5 -36.5s-12.5 -30.833 -12.5 -53.5z
M400.997 1169l123 265h353l-242 -265h-234z" />
    <glyph glyph-name="acircumflex" unicode="&#xe2;" 
d="M84 293c0 78 15.3311 141.332 45.998 189.999s82.334 90.334 155.001 125.001c32 15.333 78.333 28.5 139 39.5s113.834 18.833 159.501 23.5s104.5 9.66699 176.5 15v2c-9.33301 48 -30.833 85.667 -64.5 113s-77.834 41 -132.501 41c-46 0 -85 -10.333 -117 -31
s-55 -49.334 -69 -86.001h-273c22 112.667 72.333 200.834 151 264.501s181.334 95.5 308.001 95.5c149.333 0 265.166 -43.667 347.499 -131s123.5 -205.333 123.5 -354v-600h-270v121c-57.333 -94 -155.666 -141 -294.999 -141c-120.667 0 -215 27.667 -283 83
s-102 132 -102 230zM198.998 1169l258 265h245l259 -265h-283l-98 93l-101 -93h-280zM353.998 323.999c0 -29.333 12.832 -54.5 38.499 -75.5s66.167 -31.5 121.5 -31.5c72 0 131.667 19 179 57s71 89.333 71 154v35c-197.333 -12.667 -314.666 -29 -351.999 -49
c-22 -11.333 -37.167 -23.5 -45.5 -36.5s-12.5 -30.833 -12.5 -53.5z" />
    <glyph glyph-name="atilde" unicode="&#xe3;" 
d="M84 293c0 78 15.3311 141.332 45.998 189.999s82.334 90.334 155.001 125.001c32 15.333 78.333 28.5 139 39.5s113.834 18.833 159.501 23.5s104.5 9.66699 176.5 15v2c-9.33301 48 -30.833 85.667 -64.5 113s-77.834 41 -132.501 41c-46 0 -85 -10.333 -117 -31
s-55 -49.334 -69 -86.001h-273c22 112.667 72.333 200.834 151 264.501s181.334 95.5 308.001 95.5c149.333 0 265.166 -43.667 347.499 -131s123.5 -205.333 123.5 -354v-600h-270v121c-57.333 -94 -155.666 -141 -294.999 -141c-120.667 0 -215 27.667 -283 83
s-102 132 -102 230zM210.998 1171c14.667 78 42.667 142 84 192s94.666 75 159.999 75c42.667 0 84.334 -10.333 125.001 -31l55 -27c15.333 -6.66699 31.666 -10 48.999 -10c12 0 24.333 5.33301 37 16s22.334 26.667 29.001 48h200c-14.667 -78 -42.5 -142 -83.5 -192
s-94.167 -75 -159.5 -75c-42.667 0 -84.334 10.333 -125.001 31l-56 27c-15.333 6.66699 -31.666 10 -48.999 10c-12 0 -24.333 -5.33301 -37 -16s-22.667 -26.667 -30 -48h-199zM353.998 323.999c0 -29.333 12.832 -54.5 38.499 -75.5s66.167 -31.5 121.5 -31.5
c72 0 131.667 19 179 57s71 89.333 71 154v35c-197.333 -12.667 -314.666 -29 -351.999 -49c-22 -11.333 -37.167 -23.5 -45.5 -36.5s-12.5 -30.833 -12.5 -53.5z" />
    <glyph glyph-name="adieresis" unicode="&#xe4;" 
d="M84 293c0 78 15.3311 141.332 45.998 189.999s82.334 90.334 155.001 125.001c32 15.333 78.333 28.5 139 39.5s113.834 18.833 159.501 23.5s104.5 9.66699 176.5 15v2c-9.33301 48 -30.833 85.667 -64.5 113s-77.834 41 -132.501 41c-46 0 -85 -10.333 -117 -31
s-55 -49.334 -69 -86.001h-273c22 112.667 72.333 200.834 151 264.501s181.334 95.5 308.001 95.5c149.333 0 265.166 -43.667 347.499 -131s123.5 -205.333 123.5 -354v-600h-270v121c-57.333 -94 -155.666 -141 -294.999 -141c-120.667 0 -215 27.667 -283 83
s-102 132 -102 230zM243.998 1182v239h270v-239h-270zM353.998 323.999c0 -29.333 12.832 -54.5 38.499 -75.5s66.167 -31.5 121.5 -31.5c72 0 131.667 19 179 57s71 89.333 71 154v35c-197.333 -12.667 -314.666 -29 -351.999 -49c-22 -11.333 -37.167 -23.5 -45.5 -36.5
s-12.5 -30.833 -12.5 -53.5zM644.997 1182v239h270v-239h-270z" />
    <glyph glyph-name="aring" unicode="&#xe5;" 
d="M84 293c0 78 15.3311 141.332 45.998 189.999s82.334 90.334 155.001 125.001c32 15.333 78.333 28.5 139 39.5s113.834 18.833 159.501 23.5s104.5 9.66699 176.5 15v2c-9.33301 48 -30.833 85.667 -64.5 113s-77.834 41 -132.501 41c-46 0 -85 -10.333 -117 -31
s-55 -49.334 -69 -86.001h-273c22 112.667 72.333 200.834 151 264.501s181.334 95.5 308.001 95.5c149.333 0 265.166 -43.667 347.499 -131s123.5 -205.333 123.5 -354v-600h-270v121c-57.333 -94 -155.666 -141 -294.999 -141c-120.667 0 -215 27.667 -283 83
s-102 132 -102 230zM353.998 323.999c0 -29.333 12.832 -54.5 38.499 -75.5s66.167 -31.5 121.5 -31.5c72 0 131.667 19 179 57s71 89.333 71 154v35c-197.333 -12.667 -314.666 -29 -351.999 -49c-22 -11.333 -37.167 -23.5 -45.5 -36.5s-12.5 -30.833 -12.5 -53.5z
M427.997 1300c0 42 14.833 78.167 44.5 108.5s65.5 45.5 107.5 45.5s78 -15.167 108 -45.5s45 -66.5 45 -108.5s-15 -77.667 -45 -107s-66 -44 -108 -44s-77.833 14.667 -107.5 44s-44.5 65 -44.5 107zM538.997 1300c0 -11.333 4 -20.833 12 -28.5s17.667 -11.5 29 -11.5
s21 3.83301 29 11.5s12 17.167 12 28.5s-4 21 -12 29s-17.667 12 -29 12s-21 -4 -29 -12s-12 -17.667 -12 -29z" />
    <glyph glyph-name="ae" unicode="&#xe6;" horiz-adv-x="1794" 
d="M84 293c0 78 15.335 141.33 46.002 189.997s82.334 90.334 155.001 125.001c32 15.333 78.333 28.5 139 39.5s113.834 18.833 159.501 23.5s104.5 9.66699 176.5 15c-9.33301 48.667 -30.833 86.834 -64.5 114.501s-77.834 41.5 -132.501 41.5
c-46 0 -85 -10.333 -117 -31s-55 -49.334 -69 -86.001h-273c22 112.667 72.333 200.834 151 264.501s181.334 95.5 308.001 95.5c140 0 252 -47 336 -141c84 94 196 141 336 141c149.333 0 265.166 -43.667 347.499 -131s123.5 -205.333 123.5 -354v-164h-672v-6
c0 -63.333 17.667 -113.666 53 -150.999s84.666 -56 147.999 -56c46 0 85 10.333 117 31s55 49.334 69 86.001h275c-22 -112.667 -72.667 -200.834 -152 -264.501s-182.333 -95.5 -309 -95.5c-99.333 0 -184.333 20 -255 60s-124.334 96.333 -161.001 169
c-21.333 -74 -61.333 -130.667 -120 -170s-133.334 -59 -224.001 -59c-123.333 0 -219.333 27.667 -288 83s-103 132 -103 230zM354.002 323.997c0 -29.333 12.832 -54.5 38.499 -75.5s66.167 -31.5 121.5 -31.5c72 0 131.667 19 179 57s71 89.333 71 154v35
c-197.333 -12.667 -314.666 -29 -351.999 -49c-22 -11.333 -37.167 -23.5 -45.5 -36.5s-12.5 -30.833 -12.5 -53.5zM1034 658.997h400c-4 56.667 -23.333 101.334 -58 134.001s-81.667 49 -141 49s-106.333 -16.333 -141 -49s-54.667 -77.334 -60 -134.001z" />
    <glyph glyph-name="ccedilla" unicode="&#xe7;" horiz-adv-x="1101" 
d="M90 465v134.999c0 148.667 41.167 266.667 123.5 354s198.166 131 347.499 131c134.667 0 242.5 -36 323.5 -108s128.833 -171 143.5 -297h-270c-8 50 -29 89.5 -63 118.5s-78.667 43.5 -134 43.5c-63.333 0 -112.666 -18.667 -147.999 -56s-53 -87.666 -53 -150.999
v-205c0 -63.333 17.667 -113.666 53 -150.999s84.666 -56 147.999 -56c56 0 101 14.333 135 43s54.667 68.334 62 119.001h270c-12.667 -108 -49.667 -196.5 -111 -265.5s-143.666 -112.167 -246.999 -129.5l-74 -314h-266l112 316
c-112.667 21.333 -199.5 73.666 -260.5 156.999s-91.5 188.666 -91.5 315.999z" />
    <glyph glyph-name="egrave" unicode="&#xe8;" horiz-adv-x="1120" 
d="M90 465l0.00195312 134.999c0 148.667 41.167 266.667 123.5 354s198.166 131 347.499 131s265.166 -43.667 347.499 -131s123.5 -205.333 123.5 -354v-164h-672v-6c0 -63.333 17.667 -113.666 53 -150.999s84.666 -56 147.999 -56c46 0 85.167 10.333 117.5 31
s55.5 49.334 69.5 86.001h274c-22 -112.667 -72.667 -200.834 -152 -264.501s-182.333 -95.5 -309 -95.5c-149.333 0 -265.166 43.667 -347.499 131s-123.5 205.333 -123.5 354zM264.002 1434h352l123 -265h-233zM360.002 658.999l400 -0.000976562v3
c-4 56 -23.167 100 -57.5 132s-81.5 48 -141.5 48c-59.333 0 -106.333 -16.167 -141 -48.5s-54.667 -76.166 -60 -131.499v-3z" />
    <glyph glyph-name="eacute" unicode="&#xe9;" horiz-adv-x="1120" 
d="M90 465l0.00195312 134.999c0 148.667 41.167 266.667 123.5 354s198.166 131 347.499 131s265.166 -43.667 347.499 -131s123.5 -205.333 123.5 -354v-164h-672v-6c0 -63.333 17.667 -113.666 53 -150.999s84.666 -56 147.999 -56c46 0 85.167 10.333 117.5 31
s55.5 49.334 69.5 86.001h274c-22 -112.667 -72.667 -200.834 -152 -264.501s-182.333 -95.5 -309 -95.5c-149.333 0 -265.166 43.667 -347.499 131s-123.5 205.333 -123.5 354zM360.002 658.999l400 -0.000976562v3c-4 56 -23.167 100 -57.5 132s-81.5 48 -141.5 48
c-59.333 0 -106.333 -16.167 -141 -48.5s-54.667 -76.166 -60 -131.499v-3zM403.002 1169l123 265h353l-242 -265h-234z" />
    <glyph glyph-name="ecircumflex" unicode="&#xea;" horiz-adv-x="1120" 
d="M90 465l0.00195312 134.999c0 148.667 41.167 266.667 123.5 354s198.166 131 347.499 131s265.166 -43.667 347.499 -131s123.5 -205.333 123.5 -354v-164h-672v-6c0 -63.333 17.667 -113.666 53 -150.999s84.666 -56 147.999 -56c46 0 85.167 10.333 117.5 31
s55.5 49.334 69.5 86.001h274c-22 -112.667 -72.667 -200.834 -152 -264.501s-182.333 -95.5 -309 -95.5c-149.333 0 -265.166 43.667 -347.499 131s-123.5 205.333 -123.5 354zM180.002 1169l258 265h246l258 -265h-283l-98 93l-100 -93h-281zM360.002 658.999
l400 -0.000976562v3c-4 56 -23.167 100 -57.5 132s-81.5 48 -141.5 48c-59.333 0 -106.333 -16.167 -141 -48.5s-54.667 -76.166 -60 -131.499v-3z" />
    <glyph glyph-name="edieresis" unicode="&#xeb;" horiz-adv-x="1120" 
d="M90 465l0.00195312 134.999c0 148.667 41.167 266.667 123.5 354s198.166 131 347.499 131s265.166 -43.667 347.499 -131s123.5 -205.333 123.5 -354v-164h-672v-6c0 -63.333 17.667 -113.666 53 -150.999s84.666 -56 147.999 -56c46 0 85.167 10.333 117.5 31
s55.5 49.334 69.5 86.001h274c-22 -112.667 -72.667 -200.834 -152 -264.501s-182.333 -95.5 -309 -95.5c-149.333 0 -265.166 43.667 -347.499 131s-123.5 205.333 -123.5 354zM225.002 1182v239h271v-239h-271zM360.002 658.999l400 -0.000976562v3
c-4 56 -23.167 100 -57.5 132s-81.5 48 -141.5 48c-59.333 0 -106.333 -16.167 -141 -48.5s-54.667 -76.166 -60 -131.499v-3zM627.002 1182v239h270v-239h-270z" />
    <glyph glyph-name="igrave" unicode="&#xec;" horiz-adv-x="516" 
d="M-39 1434h352l123 -265h-233zM123 0v1057h270v-1057h-270z" />
    <glyph glyph-name="iacute" unicode="&#xed;" horiz-adv-x="516" 
d="M100 1169l123 265h352l-241 -265h-234zM123 0v1057h270v-1057h-270z" />
    <glyph glyph-name="icircumflex" unicode="&#xee;" horiz-adv-x="638" 
d="M-61 1169l258 265h245l258 -265h-282l-99 93l-100 -93h-280zM184 0v1057h271v-1057h-271z" />
    <glyph glyph-name="idieresis" unicode="&#xef;" horiz-adv-x="598" 
d="M-37 1182v239h270v-239h-270zM164 0v1057h270v-1057h-270zM365 1182v239h270v-239h-270z" />
    <glyph glyph-name="eth" unicode="&#xf0;" horiz-adv-x="1122" 
d="M90 465l-0.00195312 135.001c0 136.667 35 247.667 105 333s169 134.666 297 147.999l-54 76h-256v164h137l-79 113h327l80 -113h221v-164h-102l170 -235l2 -2c62.667 -84 94 -190.667 94 -320v-135c0 -148.667 -41.167 -266.667 -123.5 -354
s-198.166 -131 -347.499 -131s-265.166 43.667 -347.499 131s-123.5 205.333 -123.5 354zM359.998 430.001c0 -63.333 17.667 -113.666 53 -150.999s84.666 -56 147.999 -56s112.666 18.667 147.999 56s53 87.666 53 150.999v205c0 63.333 -17.667 113.666 -53 150.999
s-84.666 56 -147.999 56s-112.666 -18.667 -147.999 -56s-53 -87.666 -53 -150.999v-205z" />
    <glyph glyph-name="ntilde" unicode="&#xf1;" horiz-adv-x="1173" 
d="M123 0l270 -0.00292969v616c0 67.333 19.5 118.333 58.5 153s86.5 52 142.5 52s103.5 -17.333 142.5 -52s58.5 -85.667 58.5 -153v-616h270v627c0 60.667 -7.83301 116.334 -23.5 167.001s-37 93.667 -64 129s-58.5 65.333 -94.5 90s-74.333 42.834 -115 54.501
s-83 17.5 -127 17.5c-48 0 -95.5 -11.167 -142.5 -33.5s-82.167 -51.166 -105.5 -86.499v92h-270v-1057zM225 1171c14.667 78 42.666 142 83.999 192s94.666 75 159.999 75c42.667 0 84.334 -10.333 125.001 -31l55 -27c15.333 -6.66699 31.666 -10 48.999 -10
c12 0 24.333 5.33301 37 16s22.334 26.667 29.001 48h201c-14.667 -78 -42.667 -142 -84 -192s-94.666 -75 -159.999 -75c-42.667 0 -84.334 10.333 -125.001 31l-55 27c-15.333 6.66699 -31.666 10 -48.999 10c-12 0 -24.5 -5.33301 -37.5 -16s-23.167 -26.667 -30.5 -48
h-199z" />
    <glyph glyph-name="ograve" unicode="&#xf2;" horiz-adv-x="1122" 
d="M90 465v135c0 148.667 41.167 266.667 123.5 354s198.166 131 347.499 131s265.166 -43.667 347.499 -131s123.5 -205.333 123.5 -354v-135c0 -148.667 -41.167 -266.667 -123.5 -354s-198.166 -131 -347.499 -131s-265.166 43.667 -347.499 131
s-123.5 205.333 -123.5 354zM264 1434h352l123 -265h-233zM360 430c0 -63.333 17.667 -113.666 53 -150.999s84.666 -56 147.999 -56s112.666 18.667 147.999 56s53 87.666 53 150.999v205c0 63.333 -17.667 113.666 -53 150.999s-84.666 56 -147.999 56
s-112.666 -18.667 -147.999 -56s-53 -87.666 -53 -150.999v-205z" />
    <glyph glyph-name="oacute" unicode="&#xf3;" horiz-adv-x="1122" 
d="M90 465v135c0 148.667 41.167 266.667 123.5 354s198.166 131 347.499 131s265.166 -43.667 347.499 -131s123.5 -205.333 123.5 -354v-135c0 -148.667 -41.167 -266.667 -123.5 -354s-198.166 -131 -347.499 -131s-265.166 43.667 -347.499 131
s-123.5 205.333 -123.5 354zM360 430c0 -63.333 17.667 -113.666 53 -150.999s84.666 -56 147.999 -56s112.666 18.667 147.999 56s53 87.666 53 150.999v205c0 63.333 -17.667 113.666 -53 150.999s-84.666 56 -147.999 56s-112.666 -18.667 -147.999 -56
s-53 -87.666 -53 -150.999v-205zM403 1169l123 265h353l-242 -265h-234z" />
    <glyph glyph-name="ocircumflex" unicode="&#xf4;" horiz-adv-x="1122" 
d="M90 465v135c0 148.667 41.167 266.667 123.5 354s198.166 131 347.499 131s265.166 -43.667 347.499 -131s123.5 -205.333 123.5 -354v-135c0 -148.667 -41.167 -266.667 -123.5 -354s-198.166 -131 -347.499 -131s-265.166 43.667 -347.499 131
s-123.5 205.333 -123.5 354zM180 1169l258 265h246l258 -265h-283l-98 93l-100 -93h-281zM360 430c0 -63.333 17.667 -113.666 53 -150.999s84.666 -56 147.999 -56s112.666 18.667 147.999 56s53 87.666 53 150.999v205c0 63.333 -17.667 113.666 -53 150.999
s-84.666 56 -147.999 56s-112.666 -18.667 -147.999 -56s-53 -87.666 -53 -150.999v-205z" />
    <glyph glyph-name="otilde" unicode="&#xf5;" horiz-adv-x="1122" 
d="M90 465v135c0 148.667 41.167 266.667 123.5 354s198.166 131 347.499 131s265.166 -43.667 347.499 -131s123.5 -205.333 123.5 -354v-135c0 -148.667 -41.167 -266.667 -123.5 -354s-198.166 -131 -347.499 -131s-265.166 43.667 -347.499 131
s-123.5 205.333 -123.5 354zM193 1171c14.667 78 42.498 142 83.498 192s94.167 75 159.5 75c42.667 0 84.334 -10.333 125.001 -31l55 -27c15.333 -6.66699 32 -10 50 -10c12 0 24.167 5.33301 36.5 16s21.833 26.667 28.5 48h201c-14.667 -78 -42.667 -142 -84 -192
s-94.666 -75 -159.999 -75c-42.667 0 -84.334 10.333 -125.001 31l-55 27c-15.333 6.66699 -31.666 10 -48.999 10c-12 0 -24.5 -5.33301 -37.5 -16s-23.167 -26.667 -30.5 -48h-198zM359.998 430c0 -63.333 17.667 -113.666 53 -150.999s84.666 -56 147.999 -56
s112.666 18.667 147.999 56s53 87.666 53 150.999v205c0 63.333 -17.667 113.666 -53 150.999s-84.666 56 -147.999 56s-112.666 -18.667 -147.999 -56s-53 -87.666 -53 -150.999v-205z" />
    <glyph glyph-name="odieresis" unicode="&#xf6;" horiz-adv-x="1122" 
d="M90 465v135c0 148.667 41.167 266.667 123.5 354s198.166 131 347.499 131s265.166 -43.667 347.499 -131s123.5 -205.333 123.5 -354v-135c0 -148.667 -41.167 -266.667 -123.5 -354s-198.166 -131 -347.499 -131s-265.166 43.667 -347.499 131
s-123.5 205.333 -123.5 354zM225 1182v239h271v-239h-271zM360 430c0 -63.333 17.667 -113.666 53 -150.999s84.666 -56 147.999 -56s112.666 18.667 147.999 56s53 87.666 53 150.999v205c0 63.333 -17.667 113.666 -53 150.999s-84.666 56 -147.999 56
s-112.666 -18.667 -147.999 -56s-53 -87.666 -53 -150.999v-205zM627 1182v239h270v-239h-270z" />
    <glyph glyph-name="divide" unicode="&#xf7;" 
d="M100 440v246h942v-246h-942zM422 209c0 40.667 14.5 75.334 43.5 104.001s64.167 43 105.5 43s76.333 -14.333 105 -43s43 -63.334 43 -104.001c0 -41.333 -14.5 -76.666 -43.5 -105.999s-63.833 -44 -104.5 -44s-75.667 14.667 -105 44s-44 64.666 -44 105.999zM422 920
c0 40.667 14.5 75.334 43.5 104.001s64.167 43 105.5 43s76.333 -14.333 105 -43s43 -63.334 43 -104.001c0 -41.333 -14.5 -76.666 -43.5 -105.999s-63.833 -44 -104.5 -44s-75.667 14.667 -105 44s-44 64.666 -44 105.999z" />
    <glyph glyph-name="oslash" unicode="&#xf8;" horiz-adv-x="1134" 
d="M96 8l93.999 134.999c-62.667 84 -94 191.333 -94 322v135c0 148.667 41.167 266.667 123.5 354s198.166 131 347.499 131c96.667 0 180 -19 250 -57l88 123l133 -94l-96 -135c64 -83.333 96 -190.666 96 -321.999v-135c0 -148.667 -41.167 -266.667 -123.5 -354
s-198.166 -131 -347.499 -131c-95.333 0 -178.666 18.333 -249.999 55l-86 -121zM366.999 429.999c0 -18 0.666992 -30.334 2 -37.001l301 426c-32 15.333 -66.333 23 -103 23c-63.333 0 -112.5 -18.667 -147.5 -56s-52.5 -87.666 -52.5 -150.999v-205zM464.999 243.998
c28.667 -14 62.668 -20.999 102.001 -20.999c63.333 0 112.666 18.667 147.999 56s53 87.666 53 150.999v205c0 4 -0.333008 10 -1 18s-1 13.667 -1 17z" />
    <glyph glyph-name="ugrave" unicode="&#xf9;" horiz-adv-x="1161" 
d="M109 438l0.000976562 618.999h270v-608c0 -66 19 -116.667 57 -152s83.667 -53 137 -53s99.166 17.667 137.499 53s57.5 86 57.5 152v608h270v-1057h-270v115c-24.667 -40 -58.5 -72.5 -101.5 -97.5s-94.5 -37.5 -154.5 -37.5c-50.667 0 -99.5 9.33301 -146.5 28
s-89.833 45.834 -128.5 81.501s-69.667 83.667 -93 144s-35 128.5 -35 204.5zM276.001 1434h353l123 -265h-234z" />
    <glyph glyph-name="uacute" unicode="&#xfa;" horiz-adv-x="1161" 
d="M109 438l0.000976562 618.999h270v-608c0 -66 19 -116.667 57 -152s83.667 -53 137 -53s99.166 17.667 137.499 53s57.5 86 57.5 152v608h270v-1057h-270v115c-24.667 -40 -58.5 -72.5 -101.5 -97.5s-94.5 -37.5 -154.5 -37.5c-50.667 0 -99.5 9.33301 -146.5 28
s-89.833 45.834 -128.5 81.501s-69.667 83.667 -93 144s-35 128.5 -35 204.5zM416.001 1169l123 265h352l-242 -265h-233z" />
    <glyph glyph-name="ucircumflex" unicode="&#xfb;" horiz-adv-x="1161" 
d="M109 438l0.000976562 618.999h270v-608c0 -66 19 -116.667 57 -152s83.667 -53 137 -53s99.166 17.667 137.499 53s57.5 86 57.5 152v608h270v-1057h-270v115c-24.667 -40 -58.5 -72.5 -101.5 -97.5s-94.5 -37.5 -154.5 -37.5c-50.667 0 -99.5 9.33301 -146.5 28
s-89.833 45.834 -128.5 81.501s-69.667 83.667 -93 144s-35 128.5 -35 204.5zM193.001 1169l258 265h245l258 -265h-282l-99 93l-100 -93h-280z" />
    <glyph glyph-name="udieresis" unicode="&#xfc;" horiz-adv-x="1161" 
d="M109 438l0.000976562 618.999h270v-608c0 -66 19 -116.667 57 -152s83.667 -53 137 -53s99.166 17.667 137.499 53s57.5 86 57.5 152v608h270v-1057h-270v115c-24.667 -40 -58.5 -72.5 -101.5 -97.5s-94.5 -37.5 -154.5 -37.5c-50.667 0 -99.5 9.33301 -146.5 28
s-89.833 45.834 -128.5 81.501s-69.667 83.667 -93 144s-35 128.5 -35 204.5zM238.001 1182v239h270v-239h-270zM639.001 1182v239h270v-239h-270z" />
    <glyph glyph-name="yacute" unicode="&#xfd;" horiz-adv-x="1003" 
d="M-18 1057h284.001l236 -674l235 674h285l-416 -1157c-4 -10.667 -10.5 -29.667 -19.5 -57s-15.333 -45.666 -19 -54.999s-10.167 -24.333 -19.5 -45s-17.333 -34.834 -24 -42.501s-16.334 -18 -29.001 -31s-25.667 -21.833 -39 -26.5s-29.5 -9.16699 -48.5 -13.5
s-40.167 -6.5 -63.5 -6.5h-201v244h113c37.333 0 61.333 15.667 72 47l30 86zM344.001 1169l123 265h352l-241 -265h-234z" />
    <glyph glyph-name="thorn" unicode="&#xfe;" horiz-adv-x="1155" 
d="M123 -377v1811.01h270v-469c23.333 35.333 58.5 64.166 105.5 86.499s94.5 33.5 142.5 33.5c44 0 86.333 -5.83301 127 -17.5s79 -29.834 115 -54.501s67.5 -54.667 94.5 -90s48.333 -78.333 64 -129s23.5 -106.334 23.5 -167.001v-189
c0 -60.667 -7.83301 -116.334 -23.5 -167.001s-37 -93.667 -64 -129s-58.5 -65.333 -94.5 -90s-74.333 -42.834 -115 -54.501s-83 -17.5 -127 -17.5c-48 0 -95.5 11.167 -142.5 33.5s-82.167 51.166 -105.5 86.499v-477h-270zM393 449.006
c0 -67.333 19.5 -118.333 58.5 -153s86.5 -52 142.5 -52s103.5 17.333 142.5 52s58.5 85.667 58.5 153v167c0 67.333 -19.5 118.333 -58.5 153s-86.5 52 -142.5 52s-103.5 -17.333 -142.5 -52s-58.5 -85.667 -58.5 -153v-167z" />
    <glyph glyph-name="ydieresis" unicode="&#xff;" horiz-adv-x="1003" 
d="M-18 1057h284.001l236 -674l235 674h285l-416 -1157c-4 -10.667 -10.5 -29.667 -19.5 -57s-15.333 -45.666 -19 -54.999s-10.167 -24.333 -19.5 -45s-17.333 -34.834 -24 -42.501s-16.334 -18 -29.001 -31s-25.667 -21.833 -39 -26.5s-29.5 -9.16699 -48.5 -13.5
s-40.167 -6.5 -63.5 -6.5h-201v244h113c37.333 0 61.333 15.667 72 47l30 86zM166.001 1182v239h270v-239h-270zM567.001 1182v239h271v-239h-271z" />
    <glyph glyph-name="OE" unicode="&#x152;" horiz-adv-x="1869" 
d="M90 510l0.000976562 414c0 160.667 47.833 289.167 143.5 385.5s228.167 144.5 397.5 144.5c112 0 200.667 -28 266 -84v64h872v-273h-598v-301h598v-272h-598v-316h598v-272h-872v63c-64.667 -55.333 -153.334 -83 -266.001 -83
c-169.333 0 -301.833 48.167 -397.5 144.5s-143.5 224.833 -143.5 385.5zM365.001 510c0 -80.667 25 -143.834 75 -189.501s113.667 -68.5 191 -68.5s141 22.833 191 68.5s75 108.834 75 189.501v414c0 80.667 -25 143.834 -75 189.501s-113.667 68.5 -191 68.5
s-141 -22.833 -191 -68.5s-75 -108.834 -75 -189.501v-414z" />
    <glyph glyph-name="oe" unicode="&#x153;" horiz-adv-x="1792" 
d="M90 465l0.00195312 134.999c0 148.667 41.167 266.667 123.5 354s198.166 131 347.499 131c138.667 0 250.667 -47 336 -141c85.333 94 197.333 141 336 141c149.333 0 265.166 -43.667 347.499 -131s123.5 -205.333 123.5 -354v-164h-672v-6
c0 -63.333 17.667 -113.666 53 -150.999s84.666 -56 147.999 -56c46 0 85 10.333 117 31s55 49.334 69 86.001h275c-22 -112.667 -72.667 -200.834 -152 -264.501s-182.333 -95.5 -309 -95.5c-138.667 0 -250.667 47 -336 141c-85.333 -94 -197.333 -141 -336 -141
c-149.333 0 -265.166 43.667 -347.499 131s-123.5 205.333 -123.5 354zM360.002 429.999c0 -63.333 17.667 -113.666 53 -150.999s84.666 -56 147.999 -56s112.666 18.667 147.999 56s53 87.666 53 150.999v205c0 63.333 -17.667 113.666 -53 150.999
s-84.666 56 -147.999 56s-112.666 -18.667 -147.999 -56s-53 -87.666 -53 -150.999v-205zM1032 658.999h400c-4 56.667 -23.333 101.334 -58 134.001s-81.667 49 -141 49s-106.333 -16.333 -141 -49s-54.667 -77.334 -60 -134.001z" />
    <glyph glyph-name="Ydieresis" unicode="&#x178;" horiz-adv-x="1241" 
d="M-25 1434h312l334 -598l333 598h312l-508 -912v-522h-275v522zM283 1518v239h274v-239h-274zM684 1518v239h274v-239h-274z" />
    <glyph glyph-name="circumflex" unicode="&#x2c6;" horiz-adv-x="937" 
d="M88 1169l258 265h246l258 -265h-283l-98 93l-100 -93h-281z" />
    <glyph glyph-name="tilde" unicode="&#x2dc;" horiz-adv-x="927" 
d="M94 1171c14.667 78 42.667 142 84 192s94.666 75 159.999 75c42.667 0 84.334 -10.333 125.001 -31l55 -27c15.333 -6.66699 31.666 -10 48.999 -10c12 0 24.333 5.33301 37 16s22.334 26.667 29.001 48h201c-14.667 -78 -42.667 -142 -84 -192s-94.666 -75 -159.999 -75
c-42.667 0 -84.334 10.333 -125.001 31l-55 27c-15.333 6.66699 -32 10 -50 10c-12 0 -24.333 -5.33301 -37 -16s-22.667 -26.667 -30 -48h-199z" />
    <glyph glyph-name="uni2000" unicode="&#x2000;" horiz-adv-x="895" 
 />
    <glyph glyph-name="uni2001" unicode="&#x2001;" horiz-adv-x="1790" 
 />
    <glyph glyph-name="uni2002" unicode="&#x2002;" horiz-adv-x="895" 
 />
    <glyph glyph-name="uni2003" unicode="&#x2003;" horiz-adv-x="1790" 
 />
    <glyph glyph-name="uni2004" unicode="&#x2004;" horiz-adv-x="596" 
 />
    <glyph glyph-name="uni2005" unicode="&#x2005;" horiz-adv-x="447" 
 />
    <glyph glyph-name="uni2006" unicode="&#x2006;" horiz-adv-x="298" 
 />
    <glyph glyph-name="uni2007" unicode="&#x2007;" horiz-adv-x="298" 
 />
    <glyph glyph-name="uni2008" unicode="&#x2008;" horiz-adv-x="223" 
 />
    <glyph glyph-name="uni2009" unicode="&#x2009;" horiz-adv-x="358" 
 />
    <glyph glyph-name="uni200A" unicode="&#x200a;" horiz-adv-x="99" 
 />
    <glyph glyph-name="uni2010" unicode="&#x2010;" horiz-adv-x="757" 
d="M82 440v246h594v-246h-594z" />
    <glyph glyph-name="uni2011" unicode="&#x2011;" horiz-adv-x="757" 
d="M82 440v246h594v-246h-594z" />
    <glyph glyph-name="figuredash" unicode="&#x2012;" horiz-adv-x="757" 
d="M82 440v246h594v-246h-594z" />
    <glyph glyph-name="endash" unicode="&#x2013;" horiz-adv-x="1105" 
d="M82 440v246h942v-246h-942z" />
    <glyph glyph-name="emdash" unicode="&#x2014;" horiz-adv-x="1753" 
d="M82 440v246h1589v-246h-1589z" />
    <glyph glyph-name="quoteleft" unicode="&#x2018;" horiz-adv-x="544" 
d="M109 872v328l88 234h192l-88 -234h135v-328h-327z" />
    <glyph glyph-name="quoteright" unicode="&#x2019;" horiz-adv-x="544" 
d="M109 1106v328h327v-328l-88 -234h-192l88 234h-135z" />
    <glyph glyph-name="quotesinglbase" unicode="&#x201a;" horiz-adv-x="544" 
d="M109 0v328h327v-328l-88 -233h-192l88 233h-135z" />
    <glyph glyph-name="quotedblleft" unicode="&#x201c;" horiz-adv-x="1036" 
d="M109 872v328l88 234h192l-88 -234h135v-328h-327zM600 872v328l88 234h193l-88 -234h135v-328h-328z" />
    <glyph glyph-name="quotedblright" unicode="&#x201d;" horiz-adv-x="1036" 
d="M109 1106v328h327v-328l-88 -234h-192l88 234h-135zM600 1106v328h328v-328l-88 -234h-193l88 234h-135z" />
    <glyph glyph-name="quotedblbase" unicode="&#x201e;" horiz-adv-x="1036" 
d="M109 0v328h327v-328l-88 -233h-192l88 233h-135zM600 0v328h328v-328l-88 -233h-193l88 233h-135z" />
    <glyph glyph-name="bullet" unicode="&#x2022;" horiz-adv-x="1638" 
d="M475 713c0 95.333 33.5 176.5 100.5 243.5s148.167 100.5 243.5 100.5s176.5 -33.5 243.5 -100.5s100.5 -148.167 100.5 -243.5s-33.5 -176.5 -100.5 -243.5s-148.167 -100.5 -243.5 -100.5s-176.5 33.5 -243.5 100.5s-100.5 148.167 -100.5 243.5z" />
    <glyph glyph-name="ellipsis" unicode="&#x2026;" horiz-adv-x="1757" 
d="M129 0v328h328v-328h-328zM715 0v328h327v-328h-327zM1300 0v328h328v-328h-328z" />
    <glyph glyph-name="uni202F" unicode="&#x202f;" horiz-adv-x="358" 
 />
    <glyph glyph-name="guilsinglleft" unicode="&#x2039;" horiz-adv-x="550" 
d="M86 442v234l363 317v-331l-117 -103l117 -102v-332z" />
    <glyph glyph-name="guilsinglright" unicode="&#x203a;" horiz-adv-x="550" 
d="M102 125v332l117 102l-117 103v331l363 -317v-234z" />
    <glyph glyph-name="uni205F" unicode="&#x205f;" horiz-adv-x="447" 
 />
    <glyph glyph-name="Euro" unicode="&#x20ac;" horiz-adv-x="1259" 
d="M59 784l43 164h125c5.33301 154 55.5 276.833 150.5 368.5s225.167 137.5 390.5 137.5c175.333 0 311.333 -51.333 408 -154l-195 -184c-50.667 62.667 -121.667 94 -213 94c-76 0 -139.333 -22.667 -190 -68s-77.334 -110 -80.001 -194h501l-43 -164h-458v-133h424
l-43 -164h-381c2.66699 -84.667 29.334 -149.834 80.001 -195.501s114 -68.5 190 -68.5c91.333 0 162.333 31.333 213 94l195 -184c-96 -102 -232 -153 -408 -153c-166 0 -296.667 45.833 -392 137.5s-145 214.834 -149 369.501h-164l43 164h121v133h-168z" />
    <glyph glyph-name="trademark" unicode="&#x2122;" horiz-adv-x="1564" 
d="M-2 1251v183h661v-183h-235v-649h-191v649h-235zM735 602v832h183l194 -400l193 400h184v-832h-184v479l-123 -256h-142l-122 256v-479h-183z" />
    <glyph glyph-name="uni25FC" unicode="&#x25fc;" horiz-adv-x="1054" 
d="M0 0v1055h1055v-1055h-1055z" />
    <glyph glyph-name="glyph1" horiz-adv-x="0" 
 />
    <glyph glyph-name="glyph2" horiz-adv-x="682" 
 />
    </font>
</defs>
</svg>
